<svg width="340" height="413" viewBox="0 0 340 413" fill="none" xmlns="http://www.w3.org/2000/svg">
    <path d="M-167.875 319.862C-161.93 331.151 -138.979 374.684 -84.6863 397.185C-73.1395 401.928 -18.8468 424.3 26.8569 403.861C87.3212 376.823 68.1523 303.701 124.436 267.256C172.785 235.837 225.456 293.907 283.702 265.168C314.076 250.193 338.308 217.769 339.076 188.747C341.379 97.9432 117.866 -54.1263 -46.6047 19.5115C-166.339 73.0966 -215.825 228.878 -167.875 319.862Z" fill="#F4EFE9"/>
    <path d="M70.4579 330.687C50.7342 330.758 31.1323 327.885 12.4395 322.181C-53.5422 301.845 -104.365 242.564 -123.506 163.565C-138.266 102.737 -129.649 45.9043 -102.062 22.1402C-83.3193 5.9796 -48.2239 -0.618664 -20.4376 6.83016C6.01195 13.8924 17.2175 32.6562 28.167 50.7757C38.8037 68.4054 48.8432 85.0557 72.0221 88.5611C98.1588 92.5046 120.001 82.7103 141.104 73.2768C164.937 62.6062 187.433 52.6572 215.049 61.0339C240.645 68.9725 262.26 91.2416 275.684 123.769C283.476 142.739 289.62 173.488 274.432 212.279C249.803 275.117 160.045 330.687 70.4579 330.687ZM-44.8679 6.34045C-65.8 6.34045 -87.0735 12.8872 -100.128 24.0217C-127.004 47.2188 -135.28 103.046 -120.718 163.049C-101.806 241.146 -51.6652 299.654 13.3496 319.758C117.157 351.744 242.153 286.922 271.702 211.505C286.605 173.436 280.604 143.306 272.953 124.748C259.842 92.9427 238.825 71.2148 214.082 63.5598C187.632 55.3893 165.733 65.2351 142.384 75.648C120.854 85.2877 98.6139 95.2624 71.5671 91.1127C47.023 87.427 36.6423 70.2354 25.6643 52.0386C14.9991 34.3831 3.96425 16.109 -21.2624 9.33029C-28.9326 7.31547 -36.8821 6.30859 -44.8679 6.34045Z" fill="#FFFEF8"/>
    </svg>
    