<svg width="391" height="651" viewBox="0 0 391 651" fill="none" xmlns="http://www.w3.org/2000/svg">
    <path d="M490.012 115.721C478.642 108.641 434.772 81.3501 375.351 86.4894C362.737 87.6196 303.387 92.8705 275.072 131.301C237.611 182.142 294.515 236.773 265.859 293.864C241.306 343.004 163.684 316.604 129.081 367.911C111.03 394.657 107.917 433.728 123.248 459.21C171.302 538.893 448.687 569.209 550.536 430.837C624.693 330.123 581.687 172.767 490.012 115.721Z" fill="#F4EFE9"/>
    <path d="M277.644 214.448C294.686 205.44 313.245 199.038 332.577 195.499C400.928 183.182 477.616 211.469 537.735 271.203C584.045 317.186 607.907 370.313 597.114 403.407C589.79 425.903 563.033 447.536 534.864 453.688C508.065 459.569 488.019 448.402 468.549 437.676C449.62 427.233 431.749 417.367 409.743 424.845C384.934 433.284 371.417 451.674 358.341 469.415C343.582 489.466 329.583 508.286 301.051 513.557C274.508 518.292 243.515 508.81 213.961 486.73C196.757 473.836 174.488 449.993 166.26 409.51C152.955 343.92 200.059 255.083 277.644 214.448ZM556.291 443.031C574.419 433.537 589.234 418.218 594.402 402.654C604.891 370.375 581.288 318.273 535.605 272.913C476.181 213.858 400.51 185.931 333.125 198.01C225.595 217.393 153.074 330.226 169.051 408.942C177.128 448.67 198.932 472.042 215.786 484.643C244.671 506.241 274.848 515.525 300.496 510.931C327.905 506.01 341.444 487.55 355.926 467.942C369.257 449.828 383.02 431.102 408.731 422.428C432.018 414.488 450.484 424.668 470.02 435.447C488.988 445.9 508.617 456.721 534.2 451.149C541.953 449.415 549.392 446.681 556.291 443.031Z" fill="#FFFEF8"/>
    </svg>
    