<svg width="506" height="482" viewBox="0 0 506 482" fill="none" xmlns="http://www.w3.org/2000/svg">
    <path d="M359.221 347.099C385.039 347.099 405.968 326.144 405.968 300.295C405.968 274.447 385.039 253.492 359.221 253.492C333.402 253.492 312.473 274.447 312.473 300.295C312.473 326.144 333.402 347.099 359.221 347.099Z" stroke="#4D803B" stroke-width="2" stroke-miterlimit="10" stroke-linecap="round"/>
    <path d="M405.66 111.85C423.835 111.85 438.568 96.9611 438.568 78.5949C438.568 60.2286 423.835 45.3398 405.66 45.3398C387.485 45.3398 372.752 60.2286 372.752 78.5949C372.752 96.9611 387.485 111.85 405.66 111.85Z" fill="#4D803B"/>
    <path d="M437.338 68.9354C437.131 68.2449 436.893 67.5695 436.641 66.894C435.811 69.5208 433.321 71.3971 429.927 73.9188C426.279 76.4893 422.906 79.4372 419.862 82.7148C411.22 92.2912 409.485 101.477 411.857 111.234L413.339 110.934C411.145 101.628 412.732 92.9217 420.944 83.7354C423.928 80.5318 427.231 77.6495 430.801 75.1346C433.662 72.9731 436.049 71.1869 437.338 68.9354Z" fill="#010001"/>
    <path d="M391.888 54.2232C395.96 58.6339 402.44 61.0303 409.723 60.7069C414.776 60.4864 420.127 57.1637 424.422 51.6945L423.189 50.9006C419.146 55.9875 414.271 59.0603 409.664 59.2661C402.871 59.5748 396.808 57.3842 393.032 53.2529C392.05 52.1828 391.243 50.9675 390.639 49.6509C390.208 49.8714 389.777 50.1067 389.361 50.3566C390.002 51.7637 390.854 53.0672 391.888 54.2232Z" fill="#010001"/>
    <path d="M384.952 104.46C385.504 95.4221 387.934 86.3839 391.617 80.0874C393.931 80.9913 396.37 81.525 398.847 81.669C405.691 82.0908 410.551 80.1627 411.848 76.442C412.22 75.2921 412.209 74.0505 411.816 72.9077C411.423 71.7648 410.669 70.7839 409.671 70.1153C406.898 68.157 401.74 67.8708 395.567 72.9472C393.784 74.4757 392.241 76.2686 390.99 78.2647C385.687 75.6749 381.329 71.4569 378.542 66.2138C377.826 64.9937 377.185 63.7585 376.633 62.5835C376.35 63.1107 376.082 63.638 375.828 64.1803C378.631 69.799 383.178 76.2311 390.23 79.4396C386.294 86.7648 383.998 94.8744 383.506 103.195C383.968 103.647 384.46 104.053 384.952 104.46ZM396.492 74.1071C402.038 69.5881 406.496 69.6785 408.821 71.3354C409.565 71.8086 410.13 72.5195 410.427 73.3548C410.724 74.1901 410.736 75.1019 410.461 75.9449C409.641 78.2948 406.197 80.6447 398.952 80.1928C396.711 80.0583 394.501 79.5966 392.392 78.822C393.521 77.0549 394.903 75.4661 396.492 74.1071Z" fill="#010001"/>
    <path d="M439.361 76.4567L438.852 76.0084C438.852 76.7107 438.957 77.4129 438.972 78.1301C446.533 85.4065 449.662 92.1749 447.521 96.7768C445.56 100.975 439.466 103.007 430.332 102.514C421.199 102.021 409.655 98.8686 398.47 93.684C387.285 88.4993 377.568 81.8206 371.129 74.9625C364.691 68.1045 362.475 62.367 364.421 58.1685C366.173 54.4033 371.489 52.3564 379.125 52.3564C381.338 52.3727 383.549 52.5274 385.743 52.8196C386.297 52.3863 386.866 51.9679 387.435 51.5794L386.192 51.3852C374.079 49.7865 365.649 52.0426 363.089 57.541C360.873 62.3222 363.343 68.8665 370.051 75.9785C376.759 83.0906 386.521 89.6199 397.841 94.8793C409.161 100.139 420.705 103.321 430.257 103.844C431.171 103.844 432.054 103.844 432.908 103.844C441.218 103.844 446.832 101.513 448.854 97.1802C451.339 91.9806 447.881 84.3457 439.361 76.4567Z" fill="#EEEEEE"/>
    <path d="M67.0469 162.964L3.07617 241.791" stroke="#4D803B" stroke-miterlimit="10" stroke-linecap="round"/>
    <path d="M30.1406 231.322L99.0322 150.032" stroke="#4D803B" stroke-miterlimit="10" stroke-linecap="round"/>
    <path d="M13.5332 276.278L103.338 164.196" stroke="#4D803B" stroke-miterlimit="10" stroke-linecap="round"/>
    <path d="M86.6147 225.163C86.6147 225.163 82.7223 217.874 86.6147 216.911C90.5071 215.949 100.01 223.166 97.334 209.768" stroke="#4D803B" stroke-miterlimit="10" stroke-linecap="round"/>
    <path d="M319.135 78.5952C319.135 78.5952 315.214 71.0211 319.135 70.0213C323.056 69.0215 332.576 76.5199 329.815 62.5835" stroke="#4D803B" stroke-miterlimit="10" stroke-linecap="round"/>
    <path d="M370.386 400.06C370.386 400.06 364.072 381.852 379.024 382.232C393.976 382.611 395.882 373.036 393.336 364.342" stroke="#4D803B" stroke-miterlimit="10" stroke-linecap="round"/>
    <path d="M130.496 53.9619C130.496 53.9619 124.181 36.0677 139.133 36.4405C154.085 36.8133 155.992 27.4039 153.445 18.8594" stroke="#4D803B" stroke-miterlimit="10" stroke-linecap="round"/>
    <path d="M202.303 106.845C207.706 101.437 207.706 92.6677 202.303 87.2592C196.901 81.8506 188.143 81.8506 182.74 87.2592C177.338 92.6677 177.338 101.437 182.74 106.845C188.143 112.254 196.901 112.254 202.303 106.845Z" stroke="#EEEEEE" stroke-miterlimit="10"/>
    <path d="M31.3708 151.264C37.1459 151.264 41.8276 146.576 41.8276 140.794C41.8276 135.012 37.1459 130.325 31.3708 130.325C25.5957 130.325 20.9141 135.012 20.9141 140.794C20.9141 146.576 25.5957 151.264 31.3708 151.264Z" stroke="#EEEEEE" stroke-miterlimit="10"/>
    <path d="M420.115 154.342C420.115 155.074 419.881 155.789 419.44 156.397C419 157.005 418.375 157.478 417.644 157.758C416.912 158.037 416.107 158.109 415.331 157.965C414.555 157.822 413.843 157.468 413.285 156.95C412.726 156.432 412.346 155.772 412.194 155.054C412.042 154.337 412.123 153.593 412.428 152.918C412.733 152.243 413.248 151.667 413.908 151.263C414.567 150.859 415.342 150.645 416.133 150.647C416.658 150.647 417.177 150.743 417.661 150.929C418.145 151.115 418.585 151.387 418.955 151.731C419.325 152.074 419.618 152.481 419.817 152.93C420.016 153.378 420.118 153.858 420.115 154.342Z" stroke="#EEEEEE" stroke-miterlimit="10"/>
    <path d="M124.867 317.539C136.756 317.539 146.395 307.888 146.395 295.984C146.395 284.08 136.756 274.43 124.867 274.43C112.977 274.43 103.338 284.08 103.338 295.984C103.338 307.888 112.977 317.539 124.867 317.539Z" stroke="#EEEEEE" stroke-miterlimit="10"/>
    <path d="M35.0609 382.201C54.4245 382.201 70.1218 366.485 70.1218 347.099C70.1218 327.712 54.4245 311.996 35.0609 311.996C15.6973 311.996 0 327.712 0 347.099C0 366.485 15.6973 382.201 35.0609 382.201Z" fill="#FEDB27"/>
    <path d="M454.561 267.656C463.394 267.656 470.554 260.487 470.554 251.644C470.554 242.801 463.394 235.633 454.561 235.633C445.729 235.633 438.568 242.801 438.568 251.644C438.568 260.487 445.729 267.656 454.561 267.656Z" stroke="#4D803B" stroke-miterlimit="10"/>
    <path d="M442.488 324.313C442.488 324.313 432.689 291.593 450.5 282.697C468.31 273.801 509.649 306.938 504.571 238.096" stroke="#FEDB27" stroke-miterlimit="10" stroke-linecap="round"/>
    <path d="M438.568 178.976L485.931 104.46" stroke="#FEDB27" stroke-miterlimit="10" stroke-linecap="round"/>
    <path d="M434.879 204.225L482.242 129.709" stroke="#FEDB27" stroke-miterlimit="10" stroke-linecap="round"/>
    <path d="M182.588 474.188C192.889 469.874 197.747 458.015 193.438 447.702C189.129 437.388 177.284 432.524 166.983 436.839C156.681 441.153 151.823 453.012 156.133 463.325C160.442 473.639 172.286 478.503 182.588 474.188Z" stroke="#4D803B" stroke-miterlimit="10"/>
    <path d="M253.422 394.195C253.425 394.866 253.229 395.522 252.859 396.081C252.489 396.64 251.962 397.076 251.344 397.335C250.726 397.593 250.046 397.663 249.388 397.534C248.731 397.405 248.127 397.083 247.652 396.61C247.178 396.137 246.854 395.534 246.722 394.876C246.591 394.219 246.657 393.537 246.912 392.917C247.168 392.297 247.602 391.767 248.158 391.395C248.715 391.022 249.37 390.823 250.039 390.823C250.934 390.823 251.792 391.178 252.426 391.81C253.06 392.442 253.418 393.299 253.422 394.195Z" stroke="#4D803B" stroke-miterlimit="10"/>
    <path d="M440.413 368.961C440.413 370.118 440.053 371.249 439.377 372.211C438.701 373.173 437.74 373.923 436.616 374.366C435.492 374.809 434.256 374.925 433.062 374.699C431.869 374.473 430.773 373.916 429.913 373.098C429.053 372.279 428.467 371.237 428.23 370.102C427.992 368.967 428.114 367.791 428.58 366.722C429.045 365.653 429.833 364.739 430.845 364.096C431.857 363.453 433.046 363.11 434.262 363.11C435.894 363.11 437.458 363.727 438.612 364.824C439.765 365.921 440.413 367.409 440.413 368.961Z" stroke="#4D803B" stroke-miterlimit="10"/>
    <path d="M303.246 466.57C317.854 466.57 329.696 454.714 329.696 440.089C329.696 425.465 317.854 413.609 303.246 413.609C288.639 413.609 276.797 425.465 276.797 440.089C276.797 454.714 288.639 466.57 303.246 466.57Z" stroke="#EEEEEE" stroke-width="2" stroke-miterlimit="10"/>
    <path d="M397.357 451.174L490.238 340.94" stroke="#FEDB27" stroke-miterlimit="10" stroke-linecap="round"/>
    <path d="M408.43 456.717L501.925 346.483" stroke="#FEDB27" stroke-miterlimit="10" stroke-linecap="round"/>
    <path d="M141.323 161.733C141.323 161.733 108.284 138.742 103.062 133.365C97.84 127.988 92.6773 121.862 96.8906 118.388C101.104 114.913 117.319 117.069 126.354 124.768L153.162 147.684L141.323 161.733Z" fill="white" stroke="black" stroke-miterlimit="10" stroke-linecap="round"/>
    <path d="M232.51 104.127C261.416 84.7193 303.174 111.497 303.174 111.497C303.174 111.497 328.336 123.16 341.846 134.883C355.355 146.606 337.951 167.38 334.896 172.408C331.841 177.437 274.776 162.337 274.776 162.337L232.51 104.127Z" fill="#FEDB27"/>
    <path d="M328.755 144.121C327.564 143.874 326.332 143.895 325.151 144.183C323.97 144.471 322.87 145.017 321.934 145.782C321.411 144.505 320.559 143.382 319.463 142.525C318.367 141.668 317.063 141.105 315.679 140.891C314.295 140.677 312.879 140.82 311.568 141.305C310.257 141.79 309.096 142.602 308.199 143.66C307.303 144.718 306.7 145.986 306.451 147.342C306.202 148.697 306.315 150.092 306.778 151.392C307.242 152.692 308.04 153.851 309.096 154.757C310.151 155.662 311.427 156.283 312.8 156.559C313.99 156.809 315.223 156.789 316.405 156.501C317.586 156.214 318.686 155.665 319.62 154.898C320.144 156.175 320.995 157.297 322.091 158.155C323.188 159.012 324.491 159.575 325.875 159.789C327.259 160.003 328.676 159.86 329.987 159.375C331.298 158.889 332.458 158.078 333.355 157.02C334.252 155.962 334.854 154.693 335.103 153.338C335.352 151.983 335.239 150.587 334.776 149.288C334.312 147.988 333.514 146.829 332.459 145.923C331.403 145.017 330.127 144.396 328.755 144.121Z" fill="#EEEEEE"/>
    <path d="M326.619 123.551C332.001 126.798 337.12 130.478 341.926 134.558C355.223 146.318 338.084 167.157 335.07 172.202" stroke="black" stroke-miterlimit="10" stroke-linecap="round"/>
    <path d="M87.6291 61.6862L69.377 110.928L367.507 221.696L385.759 172.454L87.6291 61.6862Z" fill="#4D803B"/>
    <path d="M369.932 185.713L364.156 201.294C360.711 210.589 365.444 220.921 374.728 224.37L384.585 228.032C393.869 231.482 404.188 226.743 407.634 217.448L413.409 201.867C416.854 192.571 412.121 182.24 402.837 178.79L392.981 175.128C383.696 171.679 373.377 176.418 369.932 185.713Z" fill="#4D803B"/>
    <path d="M75.043 97.0703L365.987 204.841" stroke="black" stroke-miterlimit="10" stroke-linecap="round"/>
    <path d="M83.0391 76.1318L373.983 183.903" stroke="black" stroke-miterlimit="10" stroke-linecap="round"/>
    <path d="M25.834 66.4445L69.1654 110.618L87.3443 61.3516L25.834 66.4445Z" fill="#FEDB27"/>
    <path d="M39.3676 65.4649L35.3368 76.132L26.5357 72.9911C25.8225 72.7322 25.1682 72.3377 24.6105 71.8302C24.0528 71.3227 23.6026 70.7123 23.2857 70.0338C22.9688 69.3553 22.7914 68.6221 22.7636 67.8763C22.7359 67.1304 22.8583 66.3865 23.124 65.6871C23.3879 64.9852 23.7903 64.3413 24.3082 63.7923C24.8261 63.2432 25.4492 62.7998 26.1419 62.4874C26.8346 62.175 27.5833 61.9998 28.3451 61.9718C29.107 61.9437 29.8669 62.0634 30.5815 62.324L39.3676 65.4649Z" fill="#578747"/>
    <path d="M373.624 169.962L356.688 215.653C355.743 218.203 357.042 221.038 359.589 221.985L365.814 224.298C368.362 225.244 371.193 223.944 372.139 221.393L389.075 175.703C390.02 173.152 388.721 170.317 386.174 169.371L379.949 167.058C377.401 166.111 374.57 167.412 373.624 169.962Z" fill="#EEEEEE"/>
    <path d="M237.275 140.84L230.049 163.438L296.253 188.829L303.375 185.738C309.587 159.48 287.489 123.977 287.489 123.977L241.725 122.319L237.275 140.84Z" fill="#FEDB27"/>
    <path d="M280.329 146.595C279.163 146.354 277.959 146.378 276.804 146.665C275.648 146.952 274.572 147.495 273.653 148.255C273.028 146.694 271.927 145.372 270.507 144.478C269.088 143.583 267.423 143.163 265.751 143.276C264.079 143.389 262.485 144.031 261.198 145.108C259.911 146.186 258.997 147.645 258.586 149.276C258.175 150.907 258.289 152.627 258.911 154.189C259.533 155.751 260.631 157.076 262.048 157.974C263.466 158.871 265.13 159.296 266.802 159.186C268.475 159.077 270.07 158.439 271.359 157.364C271.871 158.641 272.704 159.762 273.777 160.619C274.85 161.476 276.126 162.038 277.481 162.252C278.835 162.466 280.222 162.323 281.505 161.838C282.788 161.353 283.924 160.543 284.801 159.485C285.679 158.428 286.268 157.16 286.512 155.806C286.756 154.452 286.646 153.057 286.192 151.758C285.738 150.459 284.957 149.301 283.924 148.396C282.891 147.491 281.642 146.87 280.299 146.595H280.329Z" fill="#EEEEEE"/>
    <path d="M249.588 117.65C248.42 117.409 247.213 117.433 246.056 117.72C244.898 118.007 243.819 118.551 242.898 119.311C242.272 117.75 241.171 116.428 239.751 115.533C238.332 114.639 236.667 114.218 234.995 114.332C233.323 114.445 231.729 115.086 230.442 116.164C229.155 117.242 228.241 118.701 227.83 120.332C227.419 121.963 227.533 123.682 228.155 125.245C228.777 126.807 229.875 128.132 231.293 129.029C232.71 129.927 234.374 130.351 236.046 130.242C237.719 130.132 239.314 129.495 240.603 128.42C241.115 129.697 241.949 130.818 243.022 131.675C244.095 132.531 245.371 133.094 246.725 133.308C248.079 133.522 249.466 133.379 250.749 132.894C252.032 132.409 253.168 131.598 254.045 130.541C254.923 129.484 255.513 128.216 255.756 126.862C256 125.507 255.89 124.112 255.436 122.814C254.983 121.515 254.201 120.356 253.168 119.451C252.135 118.546 250.886 117.926 249.543 117.65H249.588Z" fill="#EEEEEE"/>
    <path d="M304.411 173.535C302.472 173.478 300.577 174.118 299.081 175.335C298.449 173.782 297.335 172.465 295.898 171.574C294.461 170.682 292.774 170.261 291.08 170.372C289.385 170.482 287.77 171.118 286.464 172.188C285.159 173.258 284.23 174.708 283.811 176.33C283.392 177.952 283.505 179.663 284.132 181.218C284.76 182.773 285.871 184.093 287.305 184.988C288.74 185.883 290.425 186.308 292.12 186.203C293.815 186.097 295.432 185.465 296.741 184.398C297.255 185.651 298.087 186.752 299.156 187.598L303.354 185.797C304.279 181.777 304.635 177.651 304.411 173.535Z" fill="#EEEEEE"/>
    <path d="M248.955 170.354C249.801 169.739 250.517 168.96 251.059 168.064C251.601 167.167 251.958 166.17 252.11 165.133C252.261 164.096 252.204 163.038 251.942 162.023C251.68 161.008 251.217 160.056 250.582 159.223C249.947 158.391 249.152 157.694 248.244 157.174C247.336 156.654 246.334 156.321 245.295 156.196C244.257 156.071 243.204 156.155 242.199 156.444C241.194 156.733 240.257 157.221 239.443 157.879C238.964 156.677 238.196 155.612 237.207 154.78C236.217 153.948 235.038 153.375 233.774 153.111H233.273L230.049 163.179L248.955 170.354Z" fill="#EEEEEE"/>
    <path d="M287.482 123.551C287.482 123.551 309.589 159.287 303.375 185.717L296.28 188.829L230.049 163.271L237.249 140.539" stroke="black" stroke-miterlimit="10" stroke-linecap="round"/>
    <path d="M128.817 139.283C128.817 139.283 114.734 124.006 117.147 120.978C119.56 117.949 137.21 128.942 151.93 142.614L144.342 157.422" fill="white"/>
    <path d="M128.817 139.283C128.817 139.283 114.734 124.006 117.147 120.978C119.56 117.949 137.21 128.942 151.93 142.614L144.342 157.422" stroke="black" stroke-miterlimit="10" stroke-linecap="round"/>
    <path d="M243.793 99.3362C214.976 108.418 193.637 142.95 186.787 146.301C181.653 148.815 151.524 137.788 151.524 137.788L137.168 164.016C137.168 164.016 160.657 191.231 195.368 195.929C230.078 200.627 247.598 146.705 247.598 146.705L303.246 111.47C303.246 111.47 272.594 90.2395 243.793 99.3362Z" fill="#FEDB27"/>
    <path d="M165.463 142.563C157.93 140.207 151.293 137.715 151.293 137.715L137.168 164.189C141.202 168.699 145.625 172.824 150.383 176.512L165.463 142.563Z" fill="#EEEEEE"/>
    <path d="M149.558 141.41L148.855 142.775L163.018 148.8L163.618 147.404L149.558 141.41Z" fill="white"/>
    <path d="M140.244 158.16L154.385 167.891L155.007 166.474L140.955 156.806L140.244 158.16Z" fill="white"/>
    <path d="M137.783 162.446L151.923 172.818L152.546 171.427L138.495 161.117L137.783 162.446Z" fill="white"/>
    <path d="M142.794 153.727L142.09 154.983L156.854 162.348L157.467 161.048L142.794 153.727Z" fill="white"/>
    <path d="M147.082 145.721L146.395 147.035L160.557 153.727L161.157 152.367L147.082 145.721Z" fill="white"/>
    <path d="M143.934 151.315L158.687 158.653L159.311 157.326L144.649 150.032L143.934 151.315Z" fill="white"/>
    <path d="M151.561 137.715L137.168 163.975C137.168 163.975 160.718 191.225 195.52 195.929C230.321 200.632 247.887 146.643 247.887 146.643" stroke="black" stroke-miterlimit="10" stroke-linecap="round"/>
    <path d="M188.045 157.645C186.877 157.403 185.668 157.427 184.51 157.717C183.352 158.007 182.274 158.555 181.355 159.32C180.729 157.764 179.629 156.447 178.212 155.556C176.795 154.665 175.134 154.247 173.466 154.361C171.798 154.475 170.209 155.116 168.925 156.192C167.642 157.267 166.73 158.723 166.32 160.35C165.91 161.977 166.023 163.692 166.643 165.251C167.263 166.81 168.358 168.132 169.771 169.028C171.185 169.925 172.844 170.35 174.513 170.242C176.181 170.135 177.773 169.501 179.061 168.43C179.573 169.711 180.407 170.837 181.483 171.697C182.558 172.557 183.837 173.122 185.195 173.337C186.554 173.551 187.944 173.408 189.231 172.922C190.517 172.435 191.656 171.622 192.536 170.561C193.415 169.5 194.005 168.228 194.248 166.869C194.491 165.511 194.378 164.112 193.921 162.81C193.464 161.508 192.678 160.348 191.64 159.443C190.603 158.537 189.349 157.918 188.001 157.645H188.045Z" fill="#EEEEEE"/>
    <path d="M232.333 142.249C231.164 142.007 229.955 142.031 228.797 142.321C227.639 142.611 226.561 143.159 225.642 143.924C225.016 142.368 223.916 141.051 222.499 140.16C221.082 139.269 219.421 138.851 217.753 138.965C216.085 139.079 214.496 139.72 213.212 140.796C211.929 141.871 211.017 143.327 210.607 144.954C210.197 146.581 210.31 148.296 210.93 149.855C211.55 151.414 212.645 152.736 214.058 153.632C215.472 154.529 217.131 154.954 218.8 154.846C220.468 154.739 222.06 154.105 223.348 153.034C223.86 154.315 224.694 155.441 225.77 156.301C226.845 157.161 228.124 157.726 229.483 157.941C230.841 158.155 232.231 158.012 233.518 157.526C234.804 157.039 235.943 156.226 236.823 155.165C237.702 154.104 238.292 152.832 238.535 151.473C238.778 150.115 238.665 148.716 238.208 147.414C237.751 146.112 236.965 144.952 235.928 144.047C234.89 143.141 233.636 142.522 232.288 142.249H232.333Z" fill="#EEEEEE"/>
    <path d="M276.65 118.889C275.484 118.64 274.277 118.659 273.12 118.947C271.963 119.234 270.886 119.782 269.972 120.549C269.348 118.988 268.248 117.665 266.83 116.77C265.411 115.874 263.746 115.451 262.073 115.562C260.401 115.673 258.806 116.312 257.517 117.387C256.228 118.462 255.311 119.919 254.898 121.548C254.484 123.178 254.595 124.896 255.215 126.459C255.834 128.021 256.931 129.347 258.347 130.246C259.763 131.146 261.427 131.573 263.1 131.466C264.773 131.36 266.37 130.726 267.661 129.654C268.174 130.93 269.007 132.051 270.081 132.907C271.154 133.763 272.431 134.326 273.786 134.539C275.141 134.753 276.528 134.61 277.811 134.126C279.095 133.641 280.231 132.831 281.109 131.774C281.987 130.717 282.577 129.45 282.821 128.096C283.065 126.742 282.954 125.348 282.5 124.05C282.047 122.752 281.265 121.594 280.232 120.69C279.198 119.785 277.949 119.165 276.605 118.889H276.65Z" fill="#EEEEEE"/>
    <path d="M261.02 99.8558C261.63 101.435 262.701 102.783 264.086 103.717C265.471 104.65 267.103 105.123 268.76 105.072C270.417 105.021 272.019 104.449 273.347 103.432C274.674 102.415 275.664 101.004 276.182 99.3896C267.371 96.8844 258.13 96.4016 249.117 97.9757C249.734 98.9604 250.548 99.7995 251.505 100.437C252.462 101.075 253.541 101.497 254.67 101.674C255.798 101.852 256.951 101.782 258.051 101.468C259.151 101.155 260.173 100.605 261.05 99.8558H261.02Z" fill="#EEEEEE"/>
    <path d="M238.492 118.455C238.829 116.824 238.658 115.127 238.003 113.599C237.348 112.071 236.241 110.787 234.835 109.926C233.429 109.065 231.794 108.669 230.157 108.793C228.52 108.917 226.961 109.555 225.696 110.618C225.486 110.091 225.226 109.585 224.922 109.107C220.67 112.237 216.629 115.653 212.826 119.33C214.223 120.715 216.075 121.526 218.025 121.607C219.976 121.688 221.887 121.033 223.39 119.768C224.03 121.363 225.156 122.708 226.604 123.605C228.052 124.501 229.746 124.903 231.436 124.751C233.125 124.599 234.723 123.901 235.993 122.76C237.263 121.618 238.139 120.093 238.492 118.409V118.455Z" fill="#EEEEEE"/>
    <path d="M303.327 111.482C300.741 109.821 298.072 108.299 295.331 106.923C294.118 108.06 293.287 109.56 292.957 111.209C292.621 112.85 292.791 114.558 293.445 116.096C294.098 117.634 295.202 118.925 296.604 119.792C298.005 120.658 299.635 121.057 301.268 120.932C302.9 120.808 304.455 120.166 305.716 119.096C306.266 120.5 307.19 121.717 308.383 122.61C309.575 123.502 310.988 124.034 312.461 124.145C313.934 124.256 315.407 123.941 316.714 123.237C318.021 122.532 319.109 121.466 319.854 120.16C310.863 115.054 303.327 111.482 303.327 111.482Z" fill="#EEEEEE"/>
    <path d="M155.765 365.574C155.765 365.574 138.428 394.989 138.398 395.681C138.368 396.374 179.737 419.767 179.737 419.767L196.833 389.66L155.765 365.574Z" fill="white" stroke="black" stroke-linecap="round" stroke-linejoin="round"/>
    <path d="M289.714 209.646L202.072 398.829L131.018 357.731L220.974 205.457L289.714 209.646Z" fill="#2E2E2E"/>
    <path d="M192.219 336.014C189.724 336.014 187.286 335.273 185.212 333.885C183.138 332.497 181.522 330.524 180.568 328.217C179.614 325.909 179.365 323.37 179.853 320.921C180.341 318.471 181.543 316.222 183.308 314.457C185.073 312.692 187.321 311.491 189.768 311.005C192.215 310.52 194.751 310.772 197.055 311.73C199.359 312.688 201.327 314.308 202.711 316.386C204.095 318.464 204.832 320.906 204.829 323.404C204.821 326.748 203.489 329.953 201.126 332.317C198.762 334.68 195.559 336.01 192.219 336.014ZM192.219 312.172C190 312.172 187.831 312.831 185.986 314.065C184.141 315.299 182.704 317.053 181.854 319.106C181.005 321.158 180.783 323.416 181.216 325.595C181.649 327.774 182.717 329.775 184.286 331.346C185.855 332.917 187.854 333.987 190.03 334.42C192.207 334.853 194.462 334.631 196.512 333.781C198.562 332.931 200.314 331.491 201.547 329.644C202.78 327.797 203.438 325.625 203.438 323.404C203.434 320.426 202.25 317.572 200.147 315.466C198.044 313.361 195.193 312.176 192.219 312.172Z" fill="#EEEEEE"/>
    <path d="M186.212 280.184C186.204 283.186 185.006 286.062 182.881 288.184C180.756 290.305 177.876 291.498 174.873 291.502C173.368 291.504 171.879 291.201 170.494 290.612L169.77 291.819C171.376 292.533 173.114 292.904 174.873 292.905C177.531 292.91 180.124 292.081 182.286 290.537C184.449 288.992 186.073 286.809 186.929 284.294C187.786 281.779 187.832 279.059 187.062 276.516C186.291 273.974 184.743 271.737 182.634 270.119L181.909 271.327C183.248 272.383 184.331 273.729 185.076 275.263C185.822 276.797 186.21 278.479 186.212 280.184Z" fill="#EEEEEE"/>
    <path d="M224.514 326.214C224.517 328.29 225.061 330.332 226.094 332.152C227.128 333.972 228.619 335.512 230.43 336.63L231.023 335.396C228.981 334.087 227.429 332.178 226.598 329.95C225.766 327.723 225.7 325.296 226.408 323.03C227.116 320.763 228.561 318.778 230.529 317.366C232.497 315.955 234.884 315.194 237.334 315.195C238.411 315.195 239.483 315.349 240.513 315.651L241.121 314.387C239.894 314.026 238.618 313.843 237.334 313.844C233.938 313.848 230.682 315.152 228.279 317.47C225.876 319.789 224.522 322.933 224.514 326.214Z" fill="#EEEEEE"/>
    <path d="M266.935 234.402C263.591 234.366 260.367 235.631 257.956 237.925C255.545 240.218 254.14 243.357 254.043 246.665C253.945 249.973 255.164 253.187 257.436 255.616C259.708 258.044 262.852 259.493 266.192 259.65L266.829 258.285C264.925 258.273 263.054 257.788 261.388 256.875C259.723 255.961 258.316 254.648 257.297 253.055C256.278 251.463 255.679 249.643 255.556 247.762C255.432 245.881 255.788 244 256.591 242.291C257.394 240.582 258.617 239.099 260.149 237.98C261.682 236.861 263.473 236.141 265.36 235.886C267.247 235.63 269.168 235.848 270.948 236.52C272.727 237.191 274.308 238.294 275.544 239.727L276.181 238.347C274.993 237.1 273.56 236.106 271.97 235.428C270.38 234.749 268.667 234.4 266.935 234.402Z" fill="#EEEEEE"/>
    <path d="M147.599 341.047C149.097 338.726 151.406 337.054 154.072 336.36C156.737 335.666 159.565 336 161.997 337.297C164.429 338.594 166.288 340.76 167.208 343.366C168.128 345.973 168.041 348.831 166.965 351.376L168.185 352.025C169.385 349.162 169.473 345.952 168.432 343.027C167.392 340.102 165.298 337.674 162.564 336.222C159.829 334.771 156.653 334.4 153.66 335.184C150.667 335.968 148.075 337.849 146.395 340.457L147.599 341.047Z" fill="#EEEEEE"/>
    <path d="M211.403 359.415C208.685 359.422 206.041 360.316 203.86 361.966C201.68 363.617 200.079 365.936 199.293 368.581L200.555 369.269C201.038 367.44 201.96 365.761 203.238 364.384C204.517 363.007 206.111 361.973 207.879 361.377C209.646 360.78 211.532 360.639 213.367 360.966C215.201 361.293 216.927 362.078 218.39 363.25L218.976 361.936C216.786 360.285 214.129 359.401 211.403 359.415Z" fill="#EEEEEE"/>
    <path d="M141.973 338.477L130.402 357.864L201.993 398.829L212.826 376.012C188.225 362.904 156.041 345.933 141.973 338.477Z" stroke="black" stroke-miterlimit="10" stroke-linecap="round"/>
    <path d="M165.627 299.128L220.974 205.457L289.714 209.646L202.072 398.829L131.018 357.731" stroke="black" stroke-miterlimit="10" stroke-linecap="round"/>
    <path d="M139.018 384.049L188.222 412.197L168.198 455.485L73.1973 425.956C73.1973 425.956 75.0586 397.943 93.5663 397.328C112.074 396.712 127.535 397.448 139.018 384.049Z" fill="white" stroke="black" stroke-linecap="round" stroke-linejoin="round"/>
    <path d="M164.232 424.133C153.395 424.856 145.147 433.796 145.817 444.107C145.934 445.74 146.269 447.351 146.815 448.893L167.82 455.485L179.61 429.717C177.576 427.75 175.157 426.236 172.508 425.274C169.859 424.312 167.039 423.923 164.232 424.133Z" stroke="black" stroke-linecap="round" stroke-linejoin="round"/>
    <path d="M77.3381 409.914C75.1112 415 73.7131 420.413 73.1973 425.945L167.749 455.485L173.459 443.087C153.308 436.197 98.2216 417.419 77.3381 409.914Z" fill="#EEEEEE" stroke="black" stroke-linecap="round" stroke-linejoin="round"/>
    <path d="M103.338 397.126L108.623 408.682L116.424 396.14L124.136 407.666L126.741 393.666L140.244 401.866L137.639 386.512" stroke="black" stroke-linecap="round" stroke-linejoin="round"/>
    <path d="M130.932 390.823C130.932 390.823 142.322 355.107 130.739 345.206C119.157 335.306 87.8357 349.406 130.932 390.823Z" stroke="black" stroke-linecap="round" stroke-linejoin="round"/>
    <path d="M131.017 390.823C131.017 390.823 117.269 360.705 103.816 361.271C90.3636 361.836 78.3006 389.93 131.017 390.823Z" stroke="black" stroke-linecap="round" stroke-linejoin="round"/>
    <path d="M124.25 365.574L131.225 390.823L142.088 373.472" stroke="black" stroke-linecap="round" stroke-linejoin="round"/>
    <path d="M243.58 308.135C243.58 308.135 270.666 326.701 271.368 326.776C272.07 326.851 297.094 288.491 297.094 288.491L269.306 270.119L243.58 308.135Z" fill="white" stroke="black" stroke-linecap="round" stroke-linejoin="round"/>
    <path d="M270.49 227.133C300.006 218.15 303.246 185.482 303.246 185.482L238.839 163.025C238.839 163.025 153.201 161.168 133.345 178.071C113.488 194.974 134.763 259.486 244.437 324.313L280.821 265.924L231.717 229.917C244.687 231.893 257.933 230.942 270.49 227.133Z" fill="#2E2E2E"/>
    <path d="M211.932 276.278C209.44 276.284 207.001 275.55 204.925 274.169C202.849 272.788 201.228 270.822 200.267 268.519C199.306 266.216 199.049 263.68 199.527 261.231C200.006 258.781 201.198 256.529 202.955 254.758C204.711 252.987 206.952 251.777 209.395 251.281C211.838 250.784 214.373 251.024 216.68 251.97C218.987 252.915 220.962 254.524 222.356 256.593C223.75 258.662 224.5 261.098 224.512 263.593C224.518 265.253 224.197 266.898 223.568 268.434C222.939 269.969 222.014 271.366 220.846 272.544C219.678 273.722 218.29 274.658 216.76 275.298C215.231 275.939 213.59 276.272 211.932 276.278ZM211.932 252.421C209.714 252.421 207.545 253.08 205.7 254.314C203.855 255.548 202.417 257.303 201.568 259.355C200.719 261.407 200.497 263.666 200.929 265.844C201.362 268.023 202.431 270.024 204 271.595C205.569 273.166 207.568 274.236 209.744 274.669C211.92 275.103 214.176 274.88 216.226 274.03C218.275 273.18 220.028 271.74 221.26 269.893C222.493 268.046 223.151 265.875 223.151 263.653C223.147 260.675 221.964 257.821 219.861 255.715C217.758 253.61 214.907 252.425 211.932 252.421Z" fill="#EEEEEE"/>
    <path d="M147.947 219.621C145.452 219.624 143.013 218.886 140.937 217.5C138.862 216.115 137.243 214.144 136.286 211.838C135.33 209.531 135.078 206.992 135.563 204.542C136.048 202.093 137.247 199.842 139.01 198.075C140.773 196.307 143.02 195.104 145.466 194.615C147.913 194.127 150.449 194.376 152.754 195.331C155.059 196.286 157.029 197.904 158.415 199.981C159.802 202.057 160.542 204.499 160.542 206.996C160.538 210.341 159.21 213.547 156.849 215.913C154.488 218.28 151.287 219.613 147.947 219.621ZM147.947 195.764C145.728 195.764 143.559 196.423 141.714 197.657C139.869 198.891 138.431 200.646 137.582 202.698C136.733 204.75 136.511 207.009 136.944 209.187C137.377 211.366 138.445 213.368 140.014 214.938C141.583 216.509 143.582 217.579 145.758 218.012C147.934 218.446 150.19 218.223 152.24 217.373C154.29 216.523 156.042 215.083 157.275 213.236C158.507 211.389 159.165 209.218 159.165 206.996C159.157 204.02 157.973 201.167 155.871 199.063C153.769 196.958 150.92 195.772 147.947 195.764Z" fill="#EEEEEE"/>
    <path d="M227.897 196.219C225.403 196.219 222.965 195.479 220.891 194.092C218.818 192.705 217.201 190.733 216.247 188.426C215.293 186.119 215.043 183.581 215.529 181.132C216.016 178.683 217.217 176.433 218.98 174.668C220.744 172.902 222.991 171.7 225.437 171.213C227.883 170.726 230.418 170.976 232.722 171.931C235.026 172.887 236.996 174.505 238.381 176.581C239.767 178.657 240.506 181.098 240.506 183.595C240.502 186.942 239.173 190.151 236.809 192.517C234.445 194.884 231.24 196.215 227.897 196.219ZM227.897 172.363C225.678 172.363 223.509 173.022 221.664 174.256C219.819 175.49 218.381 177.244 217.532 179.297C216.683 181.349 216.461 183.607 216.894 185.786C217.327 187.965 218.395 189.966 219.964 191.537C221.533 193.108 223.532 194.177 225.708 194.611C227.884 195.044 230.14 194.822 232.19 193.972C234.24 193.122 235.992 191.682 237.225 189.835C238.457 187.988 239.115 185.816 239.115 183.595C239.111 180.617 237.928 177.763 235.825 175.657C233.722 173.552 230.871 172.367 227.897 172.363Z" fill="#EEEEEE"/>
    <path d="M195.295 225.164C192.801 225.164 190.362 224.423 188.288 223.035C186.214 221.647 184.598 219.675 183.644 217.367C182.69 215.059 182.441 212.52 182.929 210.071C183.417 207.621 184.619 205.372 186.384 203.607C188.149 201.842 190.397 200.641 192.844 200.155C195.291 199.67 197.827 199.922 200.131 200.88C202.435 201.838 204.403 203.458 205.787 205.536C207.171 207.614 207.908 210.057 207.905 212.554C207.897 215.899 206.565 219.104 204.202 221.467C201.838 223.83 198.636 225.16 195.295 225.164ZM195.295 201.322C193.076 201.322 190.907 201.981 189.062 203.215C187.218 204.449 185.78 206.204 184.931 208.256C184.081 210.308 183.859 212.567 184.292 214.745C184.725 216.924 185.794 218.925 187.362 220.496C188.931 222.067 190.93 223.137 193.107 223.57C195.283 224.004 197.538 223.781 199.588 222.931C201.638 222.081 203.39 220.641 204.623 218.794C205.856 216.947 206.514 214.776 206.514 212.554C206.51 209.576 205.327 206.722 203.224 204.616C201.12 202.511 198.269 201.326 195.295 201.322Z" fill="#EEEEEE"/>
    <path d="M218.288 297.945C220.481 297.948 222.625 298.581 224.45 299.766C226.274 300.951 227.699 302.635 228.545 304.606L229.433 303.323C228.499 301.492 227.105 299.921 225.38 298.757C223.655 297.592 221.655 296.872 219.568 296.664C217.48 296.455 215.372 296.764 213.44 297.563C211.508 298.362 209.816 299.624 208.52 301.233L209.644 301.997C210.68 300.732 211.995 299.712 213.492 299.01C214.988 298.309 216.627 297.945 218.288 297.945Z" fill="#EEEEEE"/>
    <path d="M167.281 266.424C168.899 264.305 169.772 261.729 169.769 259.082C169.761 255.803 168.427 252.66 166.058 250.343C163.69 248.025 160.48 246.722 157.132 246.718C154.868 246.714 152.645 247.313 150.701 248.451L151.586 249.523C153.27 248.562 155.183 248.055 157.132 248.054C159.196 248.051 161.221 248.605 162.985 249.655C164.749 250.706 166.182 252.212 167.129 254.009C168.076 255.806 168.498 257.823 168.35 259.84C168.203 261.857 167.49 263.795 166.292 265.441L167.281 266.424Z" fill="#EEEEEE"/>
    <path d="M170.13 175.281C173.083 175.279 175.944 174.297 178.231 172.502C180.519 170.707 182.092 168.208 182.686 165.428L181.168 165.559C180.632 167.692 179.442 169.62 177.752 171.093C176.061 172.567 173.949 173.517 171.689 173.821C169.429 174.125 167.126 173.768 165.08 172.797C163.034 171.826 161.339 170.286 160.216 168.376L158.697 168.639C159.783 170.65 161.425 172.334 163.442 173.506C165.459 174.677 167.773 175.292 170.13 175.281Z" fill="#EEEEEE"/>
    <path d="M249.545 243.023C248.183 244.675 247.264 246.632 246.872 248.718C246.479 250.804 246.625 252.953 247.296 254.97C247.967 256.987 249.142 258.809 250.715 260.271C252.288 261.734 254.209 262.79 256.305 263.345L257.113 262.085C255.192 261.651 253.416 260.746 251.951 259.456C250.487 258.166 249.383 256.534 248.742 254.712C248.102 252.891 247.947 250.94 248.291 249.044C248.635 247.148 249.468 245.368 250.71 243.873L249.545 243.023Z" fill="#EEEEEE"/>
    <path d="M246.162 231.315C244.411 229.923 243.112 228.037 242.432 225.899C241.752 223.76 241.721 221.466 242.345 219.31C242.969 217.154 244.217 215.234 245.932 213.796C247.646 212.358 249.748 211.467 251.969 211.237C254.19 211.008 256.428 211.449 258.398 212.506C260.367 213.563 261.979 215.187 263.025 217.17C264.072 219.153 264.507 221.405 264.274 223.638C264.042 225.871 263.152 227.984 261.719 229.705L263.738 229.284C265.016 227.275 265.705 224.943 265.725 222.558C265.745 220.172 265.096 217.83 263.852 215.799C262.608 213.767 260.82 212.13 258.692 211.075C256.565 210.02 254.185 209.59 251.826 209.834C249.466 210.078 247.223 210.986 245.354 212.455C243.485 213.923 242.065 215.892 241.258 218.135C240.451 220.378 240.29 222.805 240.792 225.136C241.294 227.468 242.44 229.609 244.098 231.315C244.771 231.33 245.459 231.315 246.162 231.315Z" fill="#EEEEEE"/>
    <path d="M289.234 180.835L287.587 180.252C288.08 181.525 288.334 182.877 288.335 184.242C288.338 186.205 287.824 188.133 286.845 189.835C285.866 191.537 284.457 192.952 282.758 193.94C281.059 194.928 279.13 195.453 277.164 195.464C275.197 195.474 273.263 194.969 271.553 194C269.844 193.03 268.42 191.63 267.423 189.938C266.426 188.247 265.891 186.324 265.872 184.362C265.853 182.4 266.351 180.467 267.316 178.757C268.28 177.047 269.677 175.619 271.368 174.617L269.721 174.049C267.968 175.312 266.571 177.003 265.662 178.96C264.754 180.917 264.365 183.075 264.532 185.225C264.699 187.376 265.418 189.447 266.618 191.241C267.819 193.034 269.461 194.49 271.387 195.468C273.314 196.446 275.46 196.913 277.619 196.825C279.778 196.737 281.879 196.096 283.719 194.964C285.559 193.833 287.077 192.248 288.126 190.363C289.176 188.477 289.722 186.354 289.713 184.197C289.711 183.06 289.55 181.928 289.234 180.835Z" fill="#EEEEEE"/>
    <path d="M224.514 311.996L262.65 252.876" stroke="black" stroke-miterlimit="10" stroke-linecap="round"/>
    <path d="M215.975 219.005L281.103 265.884L244.641 324.313C223.816 312.21 204.042 298.378 185.527 282.963L159.928 258.857" stroke="black" stroke-miterlimit="10" stroke-linecap="round"/>
    <path d="M230.664 230.204C243.947 232.336 257.538 231.411 270.412 227.498C299.999 218.481 303.246 185.688 303.246 185.688L240.032 163.58" stroke="black" stroke-miterlimit="10" stroke-linecap="round"/>
    <path d="M265.109 328.877L296.214 281.82L337.692 304.571L302.307 396.981C302.307 396.981 274.739 393.274 275.334 374.858C275.928 356.442 277.593 341.165 265.109 328.877Z" fill="white" stroke="black" stroke-linecap="round" stroke-linejoin="round"/>
    <path d="M306.323 306.201C306.323 317.222 314.648 326.16 324.935 326.16C326.562 326.155 328.181 325.916 329.741 325.451L337.693 304.646L312.881 291.058C310.801 292.981 309.144 295.322 308.014 297.93C306.885 300.538 306.308 303.355 306.323 306.201Z" stroke="black" stroke-linecap="round" stroke-linejoin="round"/>
    <path d="M286.639 391.859C291.547 394.392 296.829 396.121 302.283 396.981L337.692 304.939L325.795 298.448C317.675 318.012 295.443 371.536 286.639 391.859Z" fill="#EEEEEE" stroke="black" stroke-linecap="round" stroke-linejoin="round"/>
    <path d="M275.338 365.574L287.253 361.023L275.205 352.297L287.253 345.275L273.401 341.719L282.508 328.624L266.955 330.221" stroke="black" stroke-linecap="round" stroke-linejoin="round"/>
    <path d="M271.261 336.959C271.261 336.959 236.357 323.07 225.698 334.133C215.039 345.197 227.034 377.815 271.261 336.959Z" stroke="black" stroke-linecap="round" stroke-linejoin="round"/>
    <path d="M270.646 337.245C270.646 337.245 239.561 349.219 239.278 362.85C238.994 376.481 266.254 390.804 270.646 337.245Z" stroke="black" stroke-linecap="round" stroke-linejoin="round"/>
    <path d="M245.426 342.172L270.645 337.066L254.322 325.544" stroke="black" stroke-linecap="round" stroke-linejoin="round"/>
    <path d="M284.792 46.5717C284.792 48.6423 284.179 50.6664 283.03 52.3881C281.881 54.1097 280.248 55.4516 278.337 56.244C276.427 57.0364 274.324 57.2437 272.296 56.8397C270.267 56.4358 268.404 55.4387 266.942 53.9745C265.479 52.5104 264.483 50.645 264.08 48.6141C263.676 46.5833 263.883 44.4783 264.675 42.5653C265.466 40.6523 266.807 39.0173 268.526 37.8669C270.246 36.7166 272.268 36.1025 274.336 36.1025C277.109 36.1025 279.769 37.2055 281.73 39.1689C283.691 41.1322 284.792 43.7951 284.792 46.5717Z" fill="#010001"/>
    <path d="M305.091 37.3344C305.091 39.405 304.478 41.4291 303.329 43.1508C302.18 44.8724 300.547 46.2143 298.636 47.0067C296.725 47.799 294.623 48.0064 292.595 47.6024C290.566 47.1985 288.703 46.2014 287.24 44.7372C285.778 43.2731 284.782 41.4077 284.379 39.3768C283.975 37.346 284.182 35.241 284.974 33.328C285.765 31.4151 287.105 29.78 288.825 28.6296C290.545 27.4792 292.566 26.8652 294.634 26.8652C297.408 26.8652 300.068 27.9682 302.029 29.9316C303.99 31.8949 305.091 34.5578 305.091 37.3344Z" fill="#010001"/>
    <path d="M326.005 27.4809C326.005 29.5515 325.392 31.5756 324.243 33.2973C323.094 35.0189 321.461 36.3608 319.55 37.1532C317.64 37.9455 315.537 38.1529 313.509 37.7489C311.48 37.3449 309.617 36.3479 308.155 34.8837C306.692 33.4196 305.696 31.5541 305.293 29.5233C304.889 27.4925 305.096 25.3875 305.888 23.4745C306.679 21.5615 308.019 19.9265 309.739 18.7761C311.459 17.6257 313.48 17.0117 315.549 17.0117C318.322 17.0117 320.982 18.1147 322.943 20.0781C324.904 22.0414 326.005 24.7043 326.005 27.4809Z" fill="#010001"/>
    <path d="M335.846 17.0116L347.015 4.0791L352.453 17.0116H335.846Z" fill="#010001"/>
    <path d="M331.627 19.475C331.627 19.475 310.928 14.8787 315.628 6.68923C319.25 0.401139 329.457 8.92001 331.627 19.475ZM331.627 19.475L335.847 1" stroke="#010001" stroke-linecap="round" stroke-linejoin="round"/>
    <path d="M331.73 19.4751C331.73 19.4751 327.808 40.2571 337.286 39.1382C344.568 38.2878 340.693 25.5918 331.73 19.4751ZM331.73 19.4751L350.609 22.8318" stroke="#010001" stroke-linecap="round" stroke-linejoin="round"/>
    <path d="M245.427 92.7591C257.996 92.7591 268.186 82.6954 268.186 70.2812C268.186 57.8669 257.996 47.8032 245.427 47.8032C232.857 47.8032 222.668 57.8669 222.668 70.2812C222.668 82.6954 232.857 92.7591 245.427 92.7591Z" fill="white" stroke="#010001" stroke-miterlimit="10"/>
    <path d="M245.578 45.9561C240.703 45.9552 235.958 47.5041 232.051 50.3716C228.144 53.2392 225.284 57.2719 223.898 61.8683C229.801 68.2184 241.413 74.156 264.156 70.8999C265.408 71.1449 266.687 71.2291 267.961 71.1504C268.103 70.1742 268.179 69.1898 268.186 68.2037C268.19 65.2822 267.608 62.3887 266.473 59.6887C265.339 56.9887 263.674 54.5353 261.574 52.4688C259.474 50.4023 256.98 48.7634 254.235 47.6459C251.49 46.5283 248.548 45.9541 245.578 45.9561Z" fill="#010001"/>
    <path d="M230.664 84.7533C231.815 84.5524 232.867 83.9565 233.649 83.0622C234.43 82.168 234.896 81.0278 234.97 79.8267" stroke="#010001" stroke-miterlimit="10" stroke-linecap="round"/>
    <path d="M225.528 69.9731L223.898 79.8265L227.589 79.5887" fill="white"/>
    <path d="M225.528 69.9731L223.898 79.8265L227.589 79.5887" stroke="#010001" stroke-miterlimit="10" stroke-linecap="round"/>
    <path d="M233.124 71.8206C233.124 72.186 233.034 72.5432 232.865 72.8471C232.696 73.1509 232.456 73.3877 232.175 73.5275C231.894 73.6673 231.585 73.7039 231.287 73.6326C230.988 73.5614 230.714 73.3854 230.499 73.127C230.284 72.8686 230.138 72.5395 230.078 72.1811C230.019 71.8227 230.049 71.4512 230.166 71.1136C230.282 70.776 230.479 70.4875 230.732 70.2845C230.985 70.0815 231.282 69.9731 231.587 69.9731C231.994 69.9731 232.386 70.1678 232.674 70.5143C232.962 70.8607 233.124 71.3307 233.124 71.8206Z" fill="#010001"/>
    <path d="M271.242 75.3554C271.335 76.5085 271.084 77.6631 270.521 78.6734C269.958 79.6836 269.109 80.5042 268.08 81.0313C267.052 81.5584 265.89 81.7684 264.743 81.6348C263.595 81.5012 262.513 81.03 261.633 80.2807C260.752 79.5314 260.114 78.5377 259.797 77.4251C259.481 76.3125 259.501 75.131 259.856 74.0299C260.21 72.9288 260.882 71.9576 261.788 71.239C262.693 70.5204 263.791 70.0866 264.942 69.9925C265.708 69.93 266.478 70.0192 267.209 70.2549C267.94 70.4906 268.618 70.8684 269.203 71.3665C269.788 71.8645 270.269 72.4732 270.619 73.1577C270.969 73.8421 271.181 74.5889 271.242 75.3554Z" fill="white"/>
    <path d="M265.109 72.4637C265.548 72.4083 265.993 72.4378 266.419 72.5503C266.845 72.6629 267.242 72.8561 267.586 73.1183C267.93 73.3805 268.215 73.7062 268.421 74.0755C268.628 74.4448 268.753 74.85 268.789 75.2665C268.825 75.683 268.771 76.102 268.63 76.4981C268.489 76.8941 268.264 77.259 267.97 77.5703C267.675 77.8817 267.316 78.1331 266.915 78.3092C266.514 78.4854 266.079 78.5825 265.637 78.5949" stroke="#010001" stroke-miterlimit="10" stroke-linecap="round"/>
    <path d="M262.033 71.1073C262.881 70.479 263.883 70.0955 264.931 69.9979C265.978 69.9003 267.032 70.0924 267.98 70.5534C268.928 71.0145 269.733 71.7272 270.31 72.6151C270.887 73.5031 271.214 74.5327 271.255 75.5938C271.297 76.6548 271.051 77.7072 270.545 78.6381C270.039 79.569 269.291 80.3433 268.382 80.878C267.473 81.4127 266.437 81.6877 265.385 81.6735C264.333 81.6592 263.305 81.3562 262.411 80.797" stroke="#010001" stroke-miterlimit="10" stroke-linecap="round"/>
    <path d="M270.777 78.7886C274.269 78.2049 277.853 78.9536 280.821 80.8867C283.789 82.8198 285.925 85.7969 286.807 89.23C287.69 92.663 287.254 96.3025 285.587 99.4297C283.919 102.557 281.141 104.944 277.801 106.121C274.461 107.297 270.802 107.177 267.546 105.784C264.29 104.391 261.675 101.826 260.216 98.5958C258.757 95.3658 258.561 91.7055 259.666 88.3378C260.771 84.97 263.098 82.1397 266.186 80.4056" stroke="#4D803B" stroke-width="0.75" stroke-miterlimit="10" stroke-linecap="round"/>
    </svg>
    