<svg width="614" height="533" viewBox="0 0 614 533" fill="none" xmlns="http://www.w3.org/2000/svg">
    <path d="M79.7136 352.604C85.6577 365.049 108.609 413.038 162.903 437.842C174.449 443.07 228.743 467.733 274.447 445.201C334.912 415.396 315.743 334.789 372.027 294.613C420.376 259.978 473.048 323.992 531.295 292.312C561.669 275.804 585.901 240.06 586.669 208.068C588.972 107.969 365.457 -59.6668 200.985 21.5087C81.2494 80.5791 31.7626 252.306 79.7136 352.604Z" fill="#F4EFE9"/>
    <path d="M318.048 364.537C298.324 364.616 278.722 361.448 260.029 355.161C194.046 332.743 143.223 267.393 124.082 180.308C109.322 113.253 117.939 50.6032 145.527 24.4065C164.269 6.59165 199.365 -0.682036 227.151 7.52928C253.601 15.3144 264.807 35.999 275.756 55.9732C286.393 75.4076 296.433 93.7623 319.612 97.6264C345.749 101.974 367.591 91.1767 388.694 80.7776C412.528 69.0147 435.024 58.0473 462.64 67.2815C488.237 76.0327 509.852 100.581 523.276 136.438C531.068 157.35 537.212 191.247 522.024 234.008C497.395 303.279 407.636 364.537 318.048 364.537ZM202.721 6.98943C181.788 6.98943 160.515 14.2063 147.461 26.4806C120.584 52.0522 112.308 113.594 126.87 179.74C145.783 265.831 195.924 330.328 260.939 352.49C364.747 387.75 489.744 316.292 519.294 233.156C534.197 191.19 528.196 157.975 520.545 137.518C507.434 102.457 486.417 78.5046 461.673 70.066C435.223 61.0591 413.324 71.9128 389.974 83.3916C368.445 94.018 346.204 105.014 319.157 100.439C294.613 96.3763 284.232 77.4249 273.254 57.3654C262.588 37.9026 251.553 17.7579 226.327 10.2853C218.656 8.06426 210.707 6.95432 202.721 6.98943Z" fill="#FFFEF8"/>
    <path d="M421.401 523.336C417.529 523.34 413.753 522.126 410.609 519.867C407.464 517.608 405.111 514.418 403.882 510.749L321.859 267.621C320.279 262.971 320.612 257.885 322.785 253.481C324.959 249.077 328.795 245.716 333.449 244.137C338.103 242.559 343.194 242.892 347.602 245.063C352.01 247.234 355.375 251.066 356.955 255.716L438.921 498.844C439.854 501.623 440.112 504.583 439.675 507.482C439.238 510.38 438.118 513.132 436.407 515.513C434.696 517.894 432.443 519.835 429.834 521.175C427.225 522.515 424.335 523.217 421.401 523.223V523.336Z" fill="#E2C4A3"/>
    <path d="M193.193 523.337C190.383 523.344 187.608 522.709 185.081 521.482C182.553 520.255 180.34 518.467 178.609 516.255C176.878 514.044 175.675 511.467 175.092 508.72C174.51 505.974 174.563 503.131 175.247 500.408L235.74 257.279C236.921 252.524 239.943 248.432 244.144 245.904C248.344 243.376 253.378 242.618 258.137 243.797C262.897 244.976 266.992 247.996 269.523 252.193C272.054 256.389 272.813 261.417 271.632 266.172L211.11 509.329C210.115 513.326 207.811 516.875 204.564 519.413C201.318 521.951 197.315 523.332 193.193 523.337Z" fill="#E2C4A3"/>
    <path d="M4.9437 532.116H568.581C569.166 532.12 569.746 532.008 570.288 531.787C570.829 531.566 571.322 531.24 571.737 530.828C572.152 530.416 572.481 529.926 572.706 529.386C572.931 528.847 573.046 528.268 573.046 527.683C573.046 526.5 572.576 525.366 571.738 524.529C570.901 523.693 569.765 523.223 568.581 523.223H4.9437C3.75946 523.223 2.62372 523.693 1.78634 524.529C0.948954 525.366 0.478516 526.5 0.478516 527.683C0.478504 528.268 0.594199 528.847 0.818943 529.386C1.04369 529.926 1.37304 530.416 1.78805 530.828C2.20305 531.24 2.69552 531.566 3.2371 531.787C3.77868 532.008 4.35867 532.12 4.9437 532.116Z" fill="#E2E2E2"/>
    <path d="M541.648 73.8739C539.91 69.3404 537.069 65.3103 533.383 62.1467C529.697 58.983 525.28 56.7853 520.532 55.7514C515.784 54.7175 510.853 54.8799 506.183 56.2241C501.514 57.5683 497.252 60.0519 493.783 63.4513C490.313 66.8507 487.744 71.059 486.308 75.697C484.872 80.3351 484.614 85.2573 485.556 90.02C486.498 94.7828 488.612 99.2365 491.706 102.98C494.801 106.723 498.779 109.639 503.282 111.464C506.472 112.824 509.352 114.817 511.748 117.322C514.144 119.828 516.005 122.794 517.218 126.04L517.616 127.063L540.369 118.312L540.084 117.544C538.831 114.143 538.271 110.526 538.437 106.906C538.603 103.285 539.492 99.7344 541.051 96.4621C542.657 92.9279 543.537 89.1081 543.639 85.2284C543.742 81.3487 543.065 77.4878 541.648 73.8739Z" fill="#FEDB27"/>
    <path d="M541.76 116.78L515.781 126.789L522.812 145.001L548.79 134.992L541.76 116.78Z" fill="#CECECE"/>
    <path d="M548.815 134.933L522.82 144.934L526.83 146.355L546.796 138.683L548.815 134.933Z" fill="#CECECE"/>
    <path d="M516.961 130.898C516.693 130.911 516.43 130.826 516.22 130.659C516.01 130.492 515.868 130.256 515.819 129.992C515.771 129.729 515.819 129.457 515.956 129.226C516.093 128.996 516.308 128.823 516.563 128.739L542.558 118.709C542.7 118.629 542.859 118.581 543.022 118.568C543.185 118.555 543.349 118.577 543.503 118.633C543.656 118.689 543.796 118.778 543.913 118.892C544.029 119.007 544.119 119.146 544.177 119.299C544.235 119.452 544.259 119.615 544.248 119.778C544.237 119.941 544.191 120.1 544.113 120.244C544.035 120.387 543.926 120.512 543.795 120.61C543.664 120.708 543.514 120.777 543.354 120.812L517.359 130.841C517.232 130.89 517.096 130.909 516.961 130.898Z" fill="#B7B7B7"/>
    <path d="M518.441 134.706C518.178 134.704 517.923 134.612 517.721 134.444C517.518 134.277 517.38 134.044 517.33 133.786C517.279 133.528 517.32 133.261 517.445 133.03C517.57 132.799 517.771 132.618 518.014 132.518L544.009 122.488C544.149 122.434 544.298 122.408 544.448 122.411C544.598 122.415 544.746 122.448 544.884 122.509C545.021 122.569 545.145 122.657 545.249 122.765C545.352 122.874 545.434 123.002 545.488 123.142C545.542 123.281 545.568 123.431 545.564 123.581C545.561 123.731 545.528 123.878 545.467 124.016C545.406 124.153 545.319 124.277 545.21 124.38C545.102 124.484 544.974 124.565 544.834 124.619L518.839 134.62L518.441 134.706Z" fill="#B7B7B7"/>
    <path d="M519.891 138.484C519.664 138.488 519.441 138.421 519.253 138.294C519.065 138.167 518.92 137.986 518.838 137.774C518.783 137.634 518.757 137.485 518.76 137.335C518.763 137.184 518.796 137.036 518.857 136.899C518.918 136.761 519.005 136.637 519.114 136.534C519.223 136.431 519.352 136.35 519.493 136.296L545.487 126.295C545.63 126.215 545.789 126.167 545.952 126.154C546.115 126.141 546.279 126.163 546.432 126.219C546.586 126.275 546.726 126.363 546.842 126.478C546.959 126.593 547.049 126.732 547.107 126.885C547.165 127.038 547.189 127.201 547.178 127.364C547.167 127.527 547.121 127.686 547.042 127.83C546.964 127.973 546.856 128.098 546.725 128.196C546.594 128.294 546.444 128.363 546.284 128.398L520.289 138.399C520.164 138.457 520.028 138.486 519.891 138.484Z" fill="#B7B7B7"/>
    <path d="M521.341 142.292C521.113 142.282 520.893 142.207 520.707 142.076C520.52 141.945 520.375 141.764 520.288 141.553C520.194 141.274 520.208 140.969 520.33 140.7C520.451 140.431 520.67 140.218 520.943 140.104L546.937 130.074C547.207 130.003 547.494 130.033 547.743 130.159C547.992 130.285 548.186 130.498 548.288 130.758C548.39 131.018 548.393 131.306 548.296 131.568C548.199 131.829 548.009 132.046 547.762 132.177L521.767 142.206C521.632 142.262 521.487 142.291 521.341 142.292Z" fill="#B7B7B7"/>
    <path d="M522.82 146.071C522.559 146.064 522.309 145.967 522.111 145.797C521.913 145.627 521.78 145.395 521.733 145.138C521.687 144.882 521.729 144.618 521.855 144.389C521.98 144.161 522.18 143.982 522.421 143.883L548.416 133.882C548.552 133.827 548.698 133.799 548.845 133.801C548.992 133.802 549.137 133.833 549.272 133.891C549.407 133.95 549.529 134.034 549.631 134.14C549.733 134.245 549.813 134.37 549.867 134.507C549.922 134.647 549.948 134.796 549.945 134.946C549.942 135.097 549.909 135.245 549.848 135.382C549.787 135.52 549.7 135.644 549.591 135.747C549.482 135.85 549.353 135.931 549.212 135.985L523.218 145.986C523.093 146.044 522.957 146.073 522.82 146.071Z" fill="#B7B7B7"/>
    <path d="M539.202 75.55C541.076 80.4088 541.467 85.7136 540.324 90.7942C539.182 95.8747 536.558 100.503 532.783 104.094C529.009 107.685 524.254 110.078 519.119 110.97C513.983 111.863 508.699 111.214 503.932 109.107C499.166 107 495.132 103.529 492.339 99.1321C489.547 94.7353 488.122 89.6103 488.244 84.4045C488.366 79.1988 490.029 74.146 493.025 69.8847C496.02 65.6233 500.213 62.3446 505.073 60.4627C508.305 59.2112 511.753 58.6087 515.218 58.6898C518.684 58.7709 522.099 59.534 525.269 60.9354C528.439 62.3367 531.302 64.3489 533.692 66.8566C536.083 69.3644 537.955 72.3185 539.202 75.55Z" fill="#FFD37B"/>
    <path d="M504.334 76.118C501.916 80.6641 497.252 82.8803 493.896 81.0903C490.54 79.3003 489.829 74.1859 492.247 69.7251C494.664 65.2643 499.357 62.9629 502.684 64.7529C506.012 66.5429 506.723 71.572 504.334 76.118Z" fill="#FCDDA7"/>
    <path d="M497.763 90.9212C497.536 93.592 495.744 95.6378 493.782 95.4673C491.819 95.2968 490.426 92.9954 490.653 90.3246C490.881 87.6538 492.644 85.6365 494.606 85.8069C495.687 86.0957 496.616 86.7862 497.203 87.7372C497.79 88.6881 497.99 89.8273 497.763 90.9212Z" fill="#FCDDA7"/>
    <path opacity="0.3" d="M480.416 339.619H82.957L112.166 81.1758H509.624L480.416 339.619Z" fill="#FEDB27"/>
    <path opacity="0.4" d="M122.062 99.7578L117.853 137.035L88.6445 395.479H486.103L515.312 137.035L519.521 99.7578H122.062Z" fill="#4D803B"/>
    <path d="M480.416 389.796H82.957L112.166 131.353H509.624L480.416 389.796Z" fill="#E6E6E6"/>
    <path d="M470.943 375.107H95.7539L109.889 249.948H485.078L470.943 375.107Z" fill="white"/>
    <path d="M177.181 360.445H70.1016L81.5632 258.841H188.671L177.181 360.445Z" fill="#FEDB27"/>
    <path d="M167.823 350.53H81.6758L90.919 268.758H177.066L167.823 350.53Z" fill="white"/>
    <path d="M194.388 233.042H111.824L114.896 205.766H197.488L194.388 233.042Z" fill="#F9F4EA"/>
    <path d="M164.724 214.176H124.936L125.362 210.397H165.151L164.724 214.176Z" fill="#33333D"/>
    <path d="M471.882 299.727H364.803L371.287 242.248H478.366L471.882 299.727Z" fill="#FEDB27"/>
    <path d="M470.403 312.741H363.324L363.779 308.621H470.858L470.403 312.741Z" fill="#33333D"/>
    <path d="M469.437 321.264H362.357L362.812 317.145H469.892L469.437 321.264Z" fill="#33333D"/>
    <path d="M291.939 223.41H209.348L212.419 196.134H295.011L291.939 223.41Z" fill="#F9F4EA"/>
    <path d="M510.106 233.042H329.963L333.063 205.766H513.178L510.106 233.042Z" fill="#33333D"/>
    <path d="M407.521 214.176H338.809L339.235 210.397H407.948L407.521 214.176Z" fill="#F9F4EA"/>
    <path d="M406.724 221.308H338.012L338.438 217.529H407.151L406.724 221.308Z" fill="#F9F4EA"/>
    <path d="M466.85 189.002H91.6602L95.9263 151.384H471.087L466.85 189.002Z" fill="white"/>
    <path d="M461.645 183.831H434.342L437.413 156.555H464.745L461.645 183.831Z" fill="#33333D"/>
    <path d="M422.537 183.831H395.234L398.306 156.555H425.637L422.537 183.831Z" fill="#FEDB27"/>
    <path d="M383.432 183.831H356.129L359.201 156.555H386.532L383.432 183.831Z" fill="#FEDB27"/>
    <path d="M195.325 163.147H105.566L106.164 157.891H195.922L195.325 163.147Z" fill="#FEDB27"/>
    <path d="M194.272 172.495H104.514L105.111 167.238H194.841L194.272 172.495Z" fill="#FEDB27"/>
    <path d="M143.251 181.842H103.463L104.06 176.586H143.849L143.251 181.842Z" fill="#FEDB27"/>
    <path d="M345.89 337.175H238.811L245.295 279.696H352.374L345.89 337.175Z" fill="#FEDB27"/>
    <path d="M344.411 350.188H237.332L237.787 346.068H344.866L344.411 350.188Z" fill="#33333D"/>
    <path d="M343.444 358.684H236.365L236.849 354.564H343.928L343.444 358.684Z" fill="#33333D"/>
    <path d="M342.648 306.774H301.58L305.647 271.002H346.687L342.648 306.774Z" fill="#414141"/>
    <path d="M509.623 131.353H112.164L116.373 94.0752H513.832L509.623 131.353Z" fill="#D3D3D3"/>
    <path d="M503.168 123.539H120.385L121.778 111.236H504.561L503.168 123.539Z" fill="#F2F2F2"/>
    <path d="M128.661 107.088H122.262L122.973 100.695H129.372L128.661 107.088Z" fill="#F9F4EA"/>
    <path d="M140.038 107.088H133.639L134.35 100.695H140.749L140.038 107.088Z" fill="#F9F4EA"/>
    <path d="M151.413 107.088H145.014L145.725 100.695H152.124L151.413 107.088Z" fill="#F9F4EA"/>
    <path d="M305.391 83.7899L293.844 122.176C293.703 122.694 293.46 123.179 293.13 123.603C292.8 124.027 292.389 124.381 291.921 124.646C291.452 124.91 290.936 125.079 290.403 125.142C289.869 125.206 289.327 125.164 288.81 125.017L214.864 102.77C213.845 102.461 212.989 101.762 212.483 100.825C211.977 99.8885 211.862 98.7901 212.163 97.769L223.709 59.3549C223.873 58.8171 224.147 58.3195 224.515 57.8938C224.882 57.4681 225.334 57.1238 225.843 56.8829C226.735 56.4787 227.741 56.3983 228.687 56.6556L302.632 78.9029C303.593 79.1823 304.415 79.8107 304.936 80.6645C305.494 81.6056 305.658 82.7289 305.391 83.7899Z" fill="#F44A6A"/>
    <path d="M304.994 80.551L266.229 96.0645C263.271 97.2284 260.004 97.3533 256.966 96.4189C253.927 95.4845 251.297 93.5461 249.506 90.9217L225.758 56.8263C226.65 56.4221 227.656 56.3417 228.602 56.599L302.548 78.8463C303.552 79.0792 304.428 79.6898 304.994 80.551Z" fill="#FFC197"/>
    <path d="M315.117 350.359C324.035 346.811 333.797 345.95 343.199 347.884C352.6 349.818 361.228 354.462 368.017 361.241C374.674 367.864 379.268 376.272 381.242 385.449L357.38 390.677C356.18 385.194 353.139 380.286 348.763 376.766C344.387 373.247 338.937 371.328 333.319 371.328C330.193 371.312 327.093 371.901 324.19 373.061L315.117 350.359Z" fill="#FFC550"/>
    <path d="M298.593 361.241C298.992 360.843 299.39 360.502 299.788 360.133L316.483 377.948C313.841 380.409 311.774 383.42 310.427 386.768C309.081 390.116 308.488 393.719 308.69 397.322C308.893 400.924 309.886 404.439 311.599 407.615C313.313 410.791 315.705 413.552 318.605 415.702C321.506 417.852 324.844 419.339 328.384 420.056C331.924 420.774 335.578 420.705 339.088 419.854C342.598 419.003 345.878 417.392 348.695 415.133C351.512 412.875 353.798 410.026 355.389 406.787L377.317 417.669C374.168 424.054 369.666 429.678 364.123 434.15C358.579 438.622 352.128 441.835 345.217 443.566C338.305 445.297 331.1 445.503 324.1 444.172C317.101 442.841 310.476 440.003 304.684 435.856C298.893 431.709 294.075 426.353 290.565 420.158C287.054 413.964 284.936 407.081 284.356 399.986C283.776 392.892 284.75 385.756 287.208 379.075C289.667 372.394 293.552 366.328 298.593 361.298V361.241Z" fill="#33333D"/>
    <path d="M357.95 395.934C357.952 394.166 357.761 392.404 357.381 390.677L381.243 385.449C383.657 396.322 382.272 407.692 377.318 417.669L355.391 406.844C357.092 403.46 357.969 399.721 357.95 395.934Z" fill="#F44A6A"/>
    <path d="M299.789 360.133C304.234 355.936 309.436 352.619 315.119 350.359L324.191 373.09C321.338 374.222 318.724 375.88 316.484 377.977L299.789 360.133Z" fill="#D1D9FE"/>
    <path d="M460.506 334.022C447.537 329.959 442.361 339.335 443.612 346.552C445.376 356.752 450.95 357.917 437.299 366.754C427.231 373.232 424.87 386.643 436.218 393.49C452.088 402.952 435.165 410.254 431.468 418.351C423.846 435.058 436.332 439.149 456.553 447.474C477.286 455.998 492.815 451.85 507.291 438.666C517.956 428.949 524.355 417.953 517.928 408.009C508.713 393.803 493.583 403.435 499.441 389.541C502.968 381.244 503.309 365.731 484.368 364.395C465.426 363.06 479.163 339.847 460.506 334.022Z" fill="#75D166"/>
    <path d="M482.69 476.91C481.025 476.913 479.422 476.278 478.211 475.137C477 473.996 476.272 472.434 476.178 470.773C475.194 448.916 470.869 427.337 463.351 406.787C462.683 405.186 462.68 403.385 463.341 401.782C464.003 400.178 465.275 398.902 466.877 398.235C468.48 397.568 470.283 397.565 471.888 398.225C473.494 398.886 474.771 400.157 475.438 401.758C475.893 402.866 486.957 429.546 489.26 469.949C489.353 471.671 488.759 473.359 487.607 474.643C486.455 475.927 484.84 476.701 483.117 476.797L482.69 476.91Z" fill="#75D166"/>
    <path d="M537.467 307.342C553.792 303.96 558.997 315.865 556.608 324.673C553.252 336.948 546.312 337.715 561.926 350.245C573.444 359.394 574.724 376.129 560.049 383.033C539.543 392.722 559.338 403.633 562.893 413.975C570.202 435.313 554.361 438.808 528.764 446.565C502.4 454.52 483.942 447.616 467.844 429.773C455.928 416.617 449.472 402.439 458.487 391.074C471.456 374.737 488.748 388.233 483.259 370.702C479.96 360.133 481.382 341.181 504.646 341.75C527.911 342.318 513.975 312.257 537.467 307.342Z" fill="#4D803B"/>
    <path d="M494.123 479.325C493.716 479.353 493.307 479.353 492.9 479.325C491.861 479.165 490.864 478.803 489.966 478.258C489.067 477.713 488.285 476.997 487.664 476.15C487.044 475.302 486.596 474.341 486.348 473.321C486.099 472.301 486.055 471.242 486.216 470.204C493.867 421.022 510.533 389.768 511.244 388.461C512.251 386.595 513.958 385.206 515.991 384.599C518.023 383.992 520.213 384.215 522.08 385.221C523.947 386.227 525.337 387.933 525.945 389.963C526.553 391.993 526.329 394.182 525.322 396.047C525.123 396.388 509.196 426.42 502.029 472.761C501.684 474.605 500.705 476.27 499.262 477.468C497.818 478.667 496 479.324 494.123 479.325Z" fill="#4D803B"/>
    <path d="M509.083 420.794C525.977 445.428 531.437 462.22 510.078 464.323C488.719 466.425 461.217 411.56 477.03 401.019C488.208 393.575 501.034 409.145 509.083 420.794Z" fill="#75D166"/>
    <path d="M519.237 523.336H470.888C467.963 523.328 465.135 522.285 462.906 520.392C460.678 518.498 459.193 515.877 458.715 512.994L448.079 447.815C448.026 447.465 448.048 447.109 448.145 446.769C448.242 446.429 448.411 446.114 448.64 445.844C448.869 445.575 449.153 445.358 449.473 445.208C449.794 445.058 450.142 444.978 450.496 444.974H539.714C540.068 444.978 540.417 445.058 540.737 445.208C541.057 445.358 541.342 445.575 541.571 445.844C541.8 446.114 541.968 446.429 542.065 446.769C542.162 447.109 542.185 447.465 542.132 447.815L531.495 512.994C531.021 515.894 529.525 518.53 527.278 520.426C525.03 522.322 522.179 523.354 519.237 523.336Z" fill="#F44A6A"/>
    <path d="M536.13 376.84C521.057 381.414 508.515 387.722 518.27 392.126C528.025 396.53 561.926 382.494 557.205 376.442C553.877 372.208 543.326 374.652 536.13 376.84Z" fill="#75D166"/>
    <path d="M537.125 328.709C533.655 338.227 530.1 342.915 525.322 337.573C520.544 332.232 530.214 313.735 536.243 316.008C540.509 317.627 538.775 324.191 537.125 328.709Z" fill="#75D166"/>
    <path d="M457.635 347.432C461.361 356.837 461.873 362.775 454.791 361.866C447.709 360.957 442.647 340.755 448.676 338.482C452.828 336.863 455.872 342.943 457.635 347.432Z" fill="#4D803B"/>
    <path d="M440.114 392.097C433.544 386.273 430.786 381.84 436.73 379.738C442.674 377.635 454.42 391.33 450.637 395.45C447.992 398.462 443.243 394.938 440.114 392.097Z" fill="#4D803B"/>
    <path d="M513.32 374.056C519.265 372.038 522.962 371.896 522.165 376.329C521.369 380.761 508.713 383.176 507.49 379.397C506.722 376.698 510.476 375.05 513.32 374.056Z" fill="#75D166"/>
    <path d="M584.892 382.675L581.09 386.471L588.026 393.404L591.828 389.609L584.892 382.675Z" fill="#B7B7B7"/>
    <path d="M612.606 414.145C612.163 414.607 611.631 414.974 611.042 415.225C610.453 415.476 609.82 415.605 609.179 415.605C608.539 415.605 607.905 415.476 607.317 415.225C606.728 414.974 606.195 414.607 605.752 414.145L585.844 392.41L590.792 387.494L612.521 407.383C612.976 407.819 613.339 408.341 613.589 408.918C613.84 409.496 613.973 410.117 613.981 410.746C613.989 411.376 613.872 412 613.636 412.584C613.4 413.167 613.05 413.698 612.606 414.145Z" fill="#33333D"/>
    <path opacity="0.35" d="M590.054 367.663C590.074 372.191 588.808 376.631 586.404 380.47C584.001 384.309 580.557 387.388 576.472 389.351C572.388 391.314 567.83 392.08 563.328 391.56C558.825 391.04 554.563 389.257 551.034 386.415C549.572 385.249 548.255 383.914 547.109 382.437C546.41 381.535 545.773 380.585 545.203 379.596C543.476 376.552 542.437 373.168 542.16 369.68C542.16 369.055 542.16 368.43 542.16 367.805C542.156 364.657 542.774 361.539 543.977 358.63C545.18 355.721 546.946 353.077 549.172 350.85C551.399 348.622 554.043 346.856 556.954 345.65C559.865 344.445 562.985 343.824 566.136 343.824C566.761 343.824 567.415 343.824 568.013 343.824C571.507 344.084 574.899 345.122 577.939 346.864C578.933 347.427 579.884 348.063 580.783 348.768C583.669 351.016 586.006 353.89 587.617 357.174C589.229 360.457 590.072 364.063 590.083 367.719L590.054 367.663Z" fill="#F4DCBD"/>
    <path opacity="0.3" d="M577.825 346.808L545.147 379.454C543.419 376.41 542.381 373.026 542.104 369.538L567.899 343.768C571.394 344.027 574.786 345.066 577.825 346.808Z" fill="#F4DCBD"/>
    <path opacity="0.3" d="M584.736 352.632L551.034 386.415C549.573 385.249 548.256 383.913 547.109 382.437L580.669 348.711C582.177 349.851 583.543 351.167 584.736 352.632Z" fill="#F4DCBD"/>
    <path d="M566.078 395.251C561.53 395.254 557.053 394.136 553.041 391.997C549.03 389.857 545.608 386.762 543.08 382.986C540.553 379.209 538.997 374.868 538.55 370.347C538.103 365.826 538.78 361.265 540.519 357.068C542.259 352.87 545.009 349.167 548.524 346.285C552.039 343.403 556.212 341.432 560.672 340.546C565.132 339.661 569.742 339.888 574.093 341.208C578.445 342.528 582.403 344.9 585.617 348.114C589.479 351.977 592.109 356.896 593.174 362.251C594.24 367.606 593.692 373.156 591.601 378.2C589.51 383.244 585.97 387.556 581.427 390.591C576.884 393.626 571.543 395.248 566.078 395.251ZM566.078 347.376C561.381 347.354 556.822 348.961 553.18 351.924C549.537 354.886 547.037 359.02 546.107 363.62C545.176 368.219 545.872 372.999 548.077 377.142C550.282 381.285 553.857 384.536 558.194 386.338C562.531 388.14 567.359 388.383 571.855 387.024C576.351 385.665 580.235 382.789 582.844 378.888C585.453 374.986 586.626 370.3 586.162 365.631C585.697 360.962 583.625 356.598 580.298 353.285C576.521 349.524 571.411 347.401 566.078 347.376Z" fill="#FEDB27"/>
    <path d="M407.977 30.0322C407.98 29.6626 408.122 29.3078 408.375 29.0378L415.229 22.1903C415.497 21.9227 415.86 21.7725 416.239 21.7725C416.617 21.7725 416.98 21.9227 417.248 22.1903C417.516 22.4578 417.666 22.8206 417.666 23.1989C417.666 23.5772 417.516 23.9401 417.248 24.2076L410.394 31.0267C410.195 31.2213 409.944 31.3535 409.67 31.4067C409.397 31.4599 409.114 31.4318 408.857 31.3259C408.6 31.22 408.379 31.041 408.222 30.811C408.066 30.5811 407.98 30.3103 407.977 30.0322Z" fill="#FFA9A9"/>
    <path d="M197.089 86.5453C195.682 86.5453 194.308 86.1287 193.138 85.3482C191.969 84.5677 191.058 83.4583 190.52 82.1604C189.982 80.8624 189.841 79.4342 190.115 78.0563C190.389 76.6784 191.067 75.4128 192.061 74.4193C193.055 73.4259 194.322 72.7494 195.702 72.4754C197.081 72.2013 198.51 72.3419 199.81 72.8796C201.109 73.4172 202.219 74.3276 203.001 75.4957C203.782 76.6639 204.199 78.0372 204.199 79.4421C204.199 81.326 203.45 83.1327 202.116 84.4648C200.783 85.7969 198.974 86.5453 197.089 86.5453ZM197.089 75.1802C196.25 75.1804 195.43 75.4278 194.731 75.8913C194.032 76.3547 193.485 77.0138 193.159 77.7859C192.833 78.5581 192.743 79.4091 192.898 80.2326C193.054 81.0561 193.449 81.8155 194.034 82.4158C194.619 83.0161 195.369 83.4307 196.189 83.6078C197.009 83.7849 197.863 83.7165 198.644 83.4113C199.425 83.1061 200.099 82.5775 200.581 81.8918C201.063 81.206 201.332 80.3935 201.355 79.5557C201.37 78.9879 201.271 78.4228 201.063 77.8941C200.855 77.3654 200.543 76.8838 200.145 76.4782C199.747 76.0726 199.271 75.7511 198.746 75.533C198.221 75.3149 197.657 75.2045 197.089 75.2086V75.1802Z" fill="#F44A6A"/>
    <path d="M191.202 67.3667C191.202 67.9286 191.035 68.478 190.722 68.9452C190.41 69.4125 189.966 69.7766 189.446 69.9917C188.926 70.2067 188.355 70.263 187.803 70.1534C187.251 70.0437 186.744 69.7731 186.347 69.3758C185.949 68.9784 185.678 68.4721 185.568 67.921C185.459 67.3698 185.515 66.7985 185.73 66.2794C185.945 65.7602 186.31 65.3164 186.778 65.0042C187.245 64.692 187.795 64.5254 188.358 64.5254C189.112 64.5254 189.835 64.8247 190.369 65.3576C190.902 65.8904 191.202 66.6131 191.202 67.3667Z" fill="#FFC197"/>
    <path d="M554.303 289.811C551.406 289.811 548.575 288.953 546.166 287.345C543.757 285.737 541.88 283.452 540.771 280.778C539.663 278.104 539.373 275.162 539.938 272.324C540.503 269.485 541.898 266.878 543.946 264.832C545.995 262.785 548.604 261.392 551.446 260.827C554.287 260.262 557.232 260.552 559.908 261.66C562.585 262.767 564.872 264.643 566.482 267.049C568.091 269.455 568.95 272.284 568.95 275.179C568.95 279.059 567.407 282.781 564.66 285.525C561.913 288.269 558.188 289.811 554.303 289.811ZM554.303 267.081C552.688 267.081 551.108 267.56 549.765 268.457C548.423 269.354 547.376 270.63 546.759 272.121C546.142 273.613 545.982 275.254 546.3 276.837C546.617 278.419 547.397 279.872 548.542 281.012C549.686 282.151 551.143 282.925 552.728 283.237C554.314 283.548 555.956 283.382 557.447 282.761C558.938 282.139 560.21 281.09 561.104 279.745C561.997 278.4 562.471 276.821 562.466 275.207C562.466 274.137 562.254 273.078 561.844 272.091C561.433 271.103 560.832 270.206 560.073 269.451C559.315 268.696 558.415 268.098 557.425 267.691C556.435 267.285 555.374 267.077 554.303 267.081Z" fill="#F9CFC0"/>
    <path d="M30.1992 189.003C30.2048 190.646 29.7218 192.254 28.8114 193.623C27.9011 194.991 26.6043 196.059 25.0857 196.691C23.5671 197.322 21.8949 197.489 20.2813 197.169C18.6677 196.85 17.1854 196.059 16.0222 194.897C14.8591 193.735 14.0676 192.255 13.748 190.643C13.4285 189.031 13.5954 187.36 14.2274 185.843C14.8595 184.326 15.9284 183.03 17.2984 182.121C18.6685 181.211 20.278 180.729 21.9229 180.734C24.1179 180.734 26.223 181.606 27.7751 183.156C29.3272 184.707 30.1992 186.81 30.1992 189.003Z" fill="#F9CFC0"/>
    <path d="M30.9671 345.415C30.9671 346.152 30.7486 346.871 30.3392 347.483C29.9298 348.095 29.3479 348.572 28.6671 348.854C27.9863 349.136 27.2372 349.21 26.5145 349.066C25.7918 348.922 25.1279 348.568 24.6069 348.047C24.0858 347.527 23.731 346.864 23.5872 346.142C23.4435 345.42 23.5172 344.671 23.7992 343.991C24.0812 343.311 24.5588 342.73 25.1715 342.321C25.7841 341.912 26.5045 341.693 27.2414 341.693C28.2295 341.693 29.1771 342.086 29.8758 342.784C30.5746 343.482 30.9671 344.428 30.9671 345.415Z" fill="#FEDB27"/>
    <path d="M46.7807 324.816H43.9366V322.117C43.9366 321.536 43.7059 320.98 43.2952 320.57C42.8845 320.159 42.3275 319.929 41.7466 319.929C41.1658 319.929 40.6088 320.159 40.1981 320.57C39.7874 320.98 39.5567 321.536 39.5567 322.117V324.816H36.8833C36.3025 324.816 35.7455 325.046 35.3348 325.457C34.9241 325.867 34.6934 326.423 34.6934 327.004C34.6934 327.584 34.9241 328.14 35.3348 328.551C35.7455 328.961 36.3025 329.191 36.8833 329.191H39.5567V331.862C39.5567 332.442 39.7874 332.999 40.1981 333.409C40.6088 333.819 41.1658 334.05 41.7466 334.05C42.3275 334.05 42.8845 333.819 43.2952 333.409C43.7059 332.999 43.9366 332.442 43.9366 331.862V329.191H46.7807C47.3615 329.191 47.9185 328.961 48.3292 328.551C48.7399 328.14 48.9706 327.584 48.9706 327.004C48.9706 326.423 48.7399 325.867 48.3292 325.457C47.9185 325.046 47.3615 324.816 46.7807 324.816Z" fill="#F9DBA5"/>
    <path d="M55.8242 517.654L57.9288 501.402L65.5794 500.266L61.8821 517.256L55.8242 517.654Z" fill="#D6DDEA"/>
    <path d="M63.3609 515.097C63.8495 515.143 64.3139 515.331 64.6976 515.637C67.597 518.505 71.1347 520.647 75.0216 521.887C79.2877 523.052 77.6097 525.098 73.4005 525.098C67.2289 525.098 64.8683 524.842 62.0242 524.928C59.1801 525.013 61.0572 525.098 54.3168 525.098C51.2168 525.098 52.2406 519.046 53.8617 515.409C54.0566 514.937 54.4107 514.548 54.8626 514.309C55.3145 514.071 55.8358 513.997 56.3361 514.102L63.3609 515.097Z" fill="#3E4048"/>
    <path d="M102.012 517.654L104.116 501.402L111.767 500.266L108.07 517.256L102.012 517.654Z" fill="#D6DDEA"/>
    <path d="M109.548 515.097C110.037 515.144 110.501 515.331 110.885 515.637C115.316 518.79 120.32 521.048 125.617 522.286C129.997 522.939 130.225 525.127 124.053 525.127C117.882 525.127 113.388 524.559 110.629 524.644C107.71 524.96 104.777 525.121 101.841 525.127C96.6364 525.127 98.2575 518.507 100.135 515.438C100.345 514.984 100.697 514.611 101.139 514.376C101.58 514.14 102.086 514.054 102.58 514.131L109.548 515.097Z" fill="#3E4048"/>
    <path d="M54.2319 293.562C52.7149 293.566 51.2376 293.077 50.0227 292.17C47.1786 289.982 21.582 270.377 21.582 250.999C21.582 231.622 47.1786 196.703 50.0227 192.838C50.5829 192.092 51.2848 191.463 52.0883 190.988C52.8917 190.513 53.781 190.2 54.7053 190.068C55.6297 189.937 56.5709 189.988 57.4755 190.219C58.38 190.451 59.23 190.858 59.9769 191.418C60.7239 191.977 61.3532 192.679 61.829 193.481C62.3047 194.284 62.6175 195.172 62.7496 196.096C62.8816 197.019 62.8303 197.96 62.5986 198.863C62.3668 199.767 61.9592 200.616 61.399 201.362C51.4447 214.603 35.8024 239.805 35.8024 251.085C35.8024 260.433 49.7952 274.383 58.5549 280.975C59.733 281.863 60.6028 283.097 61.0418 284.504C61.4808 285.912 61.467 287.421 61.0023 288.82C60.5376 290.219 59.6453 291.437 58.4512 292.303C57.2571 293.169 55.8212 293.639 54.3457 293.647L54.2319 293.562Z" fill="#F44A6A"/>
    <path d="M184.291 252.676C182.711 252.666 181.179 252.126 179.942 251.143C178.705 250.16 177.835 248.789 177.471 247.253C177.107 245.716 177.27 244.101 177.934 242.668C178.599 241.235 179.726 240.067 181.134 239.35C182.861 238.545 184.321 237.263 185.344 235.657C184.121 231.963 186.623 230.656 190.321 229.434C194.018 228.213 197.488 227.673 198.853 231.338C202.209 241.481 193.421 249.039 187.733 251.909C186.668 252.449 185.485 252.713 184.291 252.676Z" fill="#FEDB27"/>
    <path d="M231.787 217.756C226.696 226.28 219.899 233.866 213.471 236.878C198.739 243.782 183.381 236.395 176.498 221.649C167.795 203.095 177.579 172.551 197.374 179.91C201.852 181.594 206.524 182.711 211.281 183.235C227.009 184.883 235.086 178.319 238.186 184.883C242.054 193.208 238.385 206.505 231.787 217.756Z" fill="#F2C26B"/>
    <path d="M191.913 238.924L154.94 254.523L144.133 259.069L53.9761 297.029L37.452 304.018C35.3589 304.899 33.0984 305.312 30.8287 305.229C28.5591 305.145 26.3351 304.567 24.3124 303.535C23.1356 302.904 22.0537 302.11 21.0986 301.177C20.2076 300.457 19.4225 299.615 18.7665 298.677C18.1617 297.873 17.6467 297.006 17.2307 296.091V295.921C16.8612 295.106 16.5662 294.259 16.349 293.392C15.4309 289.98 15.7056 286.358 17.1278 283.124C18.5499 279.89 21.0343 277.237 24.1702 275.605L54.943 259.694L123.514 224.462L137.336 217.302L173.057 198.891L191.913 238.924Z" fill="#2A2A2E"/>
    <path d="M16.2918 293.505C15.6814 291.071 15.6814 288.524 16.2918 286.089L175.56 203.465L184.433 222.359L16.2918 293.505Z" fill="#3E4048"/>
    <path d="M191.914 238.924L154.827 254.522L137.336 217.216L173.057 198.748L191.914 238.924Z" fill="#2D385C"/>
    <path d="M231.786 217.756C228.601 214.063 230.819 208.267 226.553 205.908C221.064 202.84 215.177 207.556 210.399 203.749C209.154 202.527 208.177 201.06 207.531 199.441C206.885 197.822 206.583 196.086 206.645 194.344C206.679 190.63 208.007 187.044 210.399 184.201C210.66 183.859 210.945 183.536 211.252 183.235C226.98 184.883 235.057 178.319 238.157 184.883C242.053 193.208 238.384 206.505 231.786 217.756Z" fill="#4D803B"/>
    <path d="M206.19 209.119C206.19 212.642 205.053 215.029 201.526 215.029C200.693 215.029 199.868 214.865 199.099 214.546C198.329 214.228 197.63 213.761 197.041 213.173C196.452 212.584 195.985 211.886 195.666 211.117C195.348 210.349 195.184 209.525 195.184 208.693C195.21 207.907 195.399 207.136 195.738 206.427C196.078 205.719 196.561 205.088 197.157 204.575C197.753 204.063 198.449 203.679 199.201 203.449C199.953 203.219 200.745 203.146 201.526 203.237C205.053 203.237 206.19 205.624 206.19 209.119Z" fill="#4D803B"/>
    <path d="M181.389 228.439L181.133 226.053C217.537 222.103 241.655 196.361 241.882 196.049L243.645 197.668C243.389 197.981 218.703 224.462 181.389 228.439Z" fill="#FCD290"/>
    <path d="M185.115 231.565L184.859 229.207C221.292 225.229 237.787 207.812 237.958 207.642L239.721 209.261C239.039 210 222.316 227.531 185.115 231.565Z" fill="#FCD290"/>
    <path d="M174.677 203.72L172.658 202.442C186.367 180.876 206.787 178.774 207.583 178.688L207.811 181.075C200.991 182.271 194.506 184.91 188.791 188.816C183.077 192.722 178.264 197.803 174.677 203.72Z" fill="#FCD290"/>
    <path d="M157.784 254.892L138.928 214.716L174.308 195.509L195.155 240.032L157.784 254.892Z" fill="#D3D3D3"/>
    <path d="M153.432 245.658L146.578 231.025L182.584 213.182L190.206 229.434L153.432 245.658Z" fill="#969696"/>
    <path d="M140.406 217.87L144.473 226.536L180.479 208.693L176.042 199.231L140.406 217.87Z" fill="#EFEFEF"/>
    <g style="mix-blend-mode:multiply" opacity="0.3">
    <path d="M144.018 259.069L53.8613 297.029L54.9421 259.808L123.513 224.377L144.018 259.069Z" fill="#293549"/>
    </g>
    <path d="M87.1379 212.073C85.7174 212.051 84.3263 211.665 83.0968 210.954C81.8673 210.243 80.8402 209.23 80.1131 208.01C80.1131 208.01 79.203 206.504 74.9369 199.742C68.7368 190.366 70.8698 173.915 71.3533 170.733C71.7673 168.633 72.9749 166.773 74.7254 165.539C76.4758 164.305 78.6346 163.793 80.7536 164.107C82.8727 164.421 84.7891 165.539 86.105 167.228C87.4209 168.917 88.0353 171.047 87.8205 173.176C86.8819 179.455 87.081 188.065 88.8728 190.849C93.5939 198.378 94.2765 199.373 94.2765 199.373C95.4045 201.258 95.7385 203.512 95.2054 205.643C94.6723 207.773 93.3155 209.605 91.4324 210.738C90.1531 211.573 88.6659 212.036 87.1379 212.073Z" fill="#FEDB27"/>
    <path d="M63.248 340.955C63.248 340.955 56.024 327.743 60.6599 302.427H119.93C119.93 302.427 120.755 321.691 119.418 340.955H63.248Z" fill="#33333D"/>
    <path d="M74.0253 323.907C67.5408 323.708 60.971 327.089 60.715 333.596C60.715 334.221 66.005 402.298 63.2462 424.943C60.8857 444.15 56.5342 490.775 53.5195 510.181L66.0334 510.466C72.8876 490.832 82.529 442.275 85.0318 425.653C88.5016 402.696 87.8759 339.79 87.8759 337.147C88.1603 330.527 80.5666 324.077 74.0253 323.907Z" fill="#33333D"/>
    <path d="M107.273 323.907C100.817 323.651 90.6349 330.299 90.3789 336.834C90.3789 337.46 101.129 401.957 101.073 423.891C101.073 443.155 98.9396 492.991 98.7689 510.863L111.653 511.46C114.497 492.025 119.986 444.405 122.488 427.869C125.958 404.912 118.848 333.34 118.962 330.726C119.218 324.105 113.814 324.077 107.273 323.907Z" fill="#33333D"/>
    <path d="M109.491 153.941C109.491 159.167 107.94 164.276 105.034 168.621C102.128 172.966 97.9966 176.353 93.1635 178.353C88.3305 180.353 83.0123 180.876 77.8815 179.857C72.7508 178.837 68.0379 176.321 64.3388 172.625C60.6397 168.93 58.1206 164.221 57.1 159.096C56.0795 153.97 56.6033 148.657 58.6052 143.829C60.6071 139 63.9973 134.873 68.3469 131.97C72.6966 129.066 77.8104 127.517 83.0416 127.517C86.5151 127.517 89.9545 128.2 93.1635 129.528C96.3726 130.856 99.2884 132.802 101.744 135.256C104.201 137.71 106.149 140.623 107.478 143.829C108.807 147.034 109.491 150.471 109.491 153.941Z" fill="#FEDB27"/>
    <path d="M60.6586 302.398C62.3935 278.446 54.5155 219.319 50.2494 195.736C50.1054 194.903 50.144 194.048 50.3624 193.231C50.5808 192.414 50.9738 191.654 51.5143 191.003C52.0549 190.352 52.7303 189.826 53.4938 189.461C54.2574 189.096 55.0911 188.901 55.9375 188.889H105.055C106.031 188.896 106.991 189.143 107.849 189.609C108.707 190.075 109.437 190.745 109.975 191.559C110.295 192.083 110.544 192.646 110.714 193.236C113.558 203.919 115.805 231.195 117.398 255.744C118.99 280.35 119.872 302.313 119.872 302.313L60.6586 302.398Z" fill="#F44A6A"/>
    <path d="M117.399 255.716C111.91 234.065 105.312 211.875 101.301 199.657C101.035 198.848 100.95 197.991 101.051 197.145C101.153 196.299 101.439 195.486 101.889 194.763C102.339 194.04 102.942 193.424 103.657 192.959C104.371 192.494 105.178 192.191 106.023 192.071L109.976 191.503C110.296 192.026 110.545 192.59 110.715 193.179C113.502 203.919 115.806 231.196 117.399 255.716Z" fill="#D63054"/>
    <path d="M151.214 264.24C144.332 264.24 136.994 262.166 133.467 256.085C128.291 247.192 102.638 205.482 99.8221 200.538C99.3607 199.739 99.0623 198.856 98.9442 197.941C98.826 197.026 98.8905 196.096 99.1337 195.206C99.377 194.316 99.7942 193.483 100.361 192.754C100.929 192.026 101.635 191.417 102.439 190.963C104.074 190.114 105.969 189.909 107.748 190.388C109.528 190.866 111.063 191.994 112.052 193.548C124.85 211.25 140.492 242.419 144.275 247.192C148.854 252.875 169.075 250.204 181.248 243.47C184.632 241.566 187.818 241.055 189.41 243.64C191.458 246.936 191.23 249.863 187.846 251.766C183.182 254.324 166.544 262.734 151.214 264.24Z" fill="#F44A6A"/>
    <path d="M51.1881 156.016C51.1727 157.41 51.4626 158.791 52.0374 160.063C52.6122 161.334 53.458 162.464 54.5156 163.374C55.0787 163.827 55.7589 164.11 56.477 164.192C57.1951 164.273 57.9215 164.148 58.5714 163.832C59.2214 163.517 59.7681 163.023 60.1477 162.408C60.5274 161.794 60.7244 161.085 60.7157 160.363V151.668C60.7244 150.946 60.5274 150.237 60.1477 149.623C59.7681 149.008 59.2214 148.514 58.5714 148.199C57.9215 147.883 57.1951 147.758 56.477 147.84C55.7589 147.921 55.0787 148.204 54.5156 148.657C53.4609 149.57 52.6172 150.7 52.0427 151.971C51.4682 153.241 51.1766 154.621 51.1881 156.016Z" fill="#FEDB27"/>
    <path d="M114.896 156.016C114.892 157.424 114.577 158.814 113.972 160.086C113.367 161.359 112.488 162.482 111.398 163.374C110.835 163.827 110.154 164.11 109.436 164.192C108.718 164.273 107.992 164.148 107.342 163.832C106.692 163.517 106.145 163.023 105.766 162.408C105.386 161.794 105.189 161.085 105.198 160.363V151.668C105.189 150.946 105.386 150.237 105.766 149.623C106.145 149.008 106.692 148.514 107.342 148.199C107.992 147.883 108.718 147.758 109.436 147.84C110.154 147.921 110.835 148.204 111.398 148.657C112.485 149.552 113.362 150.675 113.966 151.947C114.571 153.219 114.888 154.608 114.896 156.016Z" fill="#FEDB27"/>
    <path d="M91.8877 128.938C98.3437 130.643 103.89 138.684 104.458 145.332C105.539 157.635 98.0878 176.87 78.8619 176.87C53.7772 176.87 52.0139 152.521 53.2653 146.412C54.5167 140.303 58.1286 129.847 67.9407 128.625C73.771 127.858 85.0051 127.12 91.8877 128.938Z" fill="#FEDB27"/>
    <path d="M88.9867 125.329C87.4031 124.956 85.7979 124.681 84.1802 124.505C71.5526 123.085 55.7396 122.658 64.9828 133.91C70.6709 140.757 102.325 145.133 105.852 131.864C105.923 131.532 105.928 131.189 105.866 130.855C105.805 130.522 105.678 130.203 105.493 129.918C105.308 129.633 105.069 129.387 104.789 129.195C104.509 129.002 104.194 128.867 103.861 128.796L88.9867 125.329Z" fill="#FEDB27"/>
    <path d="M84.1793 142.405C81.9888 142.945 79.7658 143.343 77.5242 143.598C60.0331 145.701 38.1338 146.44 50.8184 130.756C58.5542 121.181 102.495 114.788 107.501 133.171C107.6 133.639 107.605 134.123 107.515 134.594C107.426 135.064 107.243 135.512 106.979 135.911C106.714 136.311 106.372 136.653 105.974 136.92C105.575 137.186 105.127 137.37 104.657 137.461L84.1793 142.405Z" fill="#33333D"/>
    <path d="M71.7234 121.408C71.7488 121.849 71.861 122.28 72.0535 122.677C72.2461 123.074 72.5152 123.429 72.8455 123.722C73.1758 124.015 73.5607 124.24 73.9782 124.384C74.3957 124.528 74.8376 124.589 75.2785 124.562C76.1206 124.452 76.8897 124.027 77.4307 123.373C77.9718 122.719 78.2446 121.885 78.194 121.038C78.1435 120.191 77.7735 119.395 77.1586 118.81C76.5436 118.224 75.7295 117.894 74.8803 117.885C73.9949 117.936 73.1658 118.336 72.5743 118.996C71.9827 119.656 71.6768 120.523 71.7234 121.408Z" fill="#33333D"/>
    <path d="M68.7363 195.68C65.5509 195.68 62.2233 195.68 58.7251 195.282C57.6047 195.191 56.5132 194.88 55.513 194.367C54.5129 193.854 53.6236 193.149 52.896 192.293C52.1685 191.437 51.6168 190.446 51.2726 189.377C50.9283 188.308 50.7982 187.181 50.8897 186.062C50.9812 184.943 51.2925 183.852 51.8059 182.853C52.3192 181.854 53.0245 180.966 53.8815 180.239C54.7385 179.512 55.7304 178.961 56.8006 178.617C57.8708 178.273 58.9983 178.143 60.1187 178.234C73.2897 179.597 86.5993 178.015 99.0825 173.603C101.13 172.798 103.409 172.814 105.445 173.648C107.481 174.482 109.115 176.07 110.007 178.079C110.899 180.089 110.979 182.365 110.232 184.432C109.484 186.499 107.965 188.198 105.994 189.173C94.1145 193.736 81.4603 195.946 68.7363 195.68Z" fill="#4D803B"/>
    <path d="M83.3541 190.366C74.9353 190.551 66.5634 189.064 58.7245 185.991C56.7528 185.015 55.2344 183.317 54.4865 181.249C53.7386 179.182 53.8191 176.906 54.711 174.897C55.6029 172.887 57.2373 171.3 59.273 170.466C61.3087 169.632 63.5882 169.615 65.6356 170.42C72.9984 172.978 80.8332 173.889 88.5872 173.091C90.8501 172.907 93.0937 173.628 94.8245 175.096C96.5553 176.564 97.6314 178.658 97.8162 180.919C98.001 183.18 97.2793 185.421 95.8099 187.15C94.3405 188.879 92.2437 189.954 89.9808 190.139C87.6487 190.139 85.4588 190.366 83.3541 190.366Z" fill="#4D803B"/>
    <path d="M56.5913 256.995C55.0853 256.994 53.6062 256.596 52.3043 255.84C51.0024 255.084 49.924 253.997 49.1787 252.689C48.4334 251.382 48.0477 249.901 48.0609 248.396C48.074 246.892 48.4855 245.418 49.2536 244.124C57.7924 227.193 60.6351 207.961 57.3592 189.287C57.1163 188.161 57.1042 186.998 57.3236 185.868C57.543 184.737 57.9894 183.663 58.6359 182.71C59.2823 181.757 60.1154 180.944 61.0848 180.321C62.0542 179.698 63.1399 179.278 64.2763 179.086C65.4127 178.894 66.5763 178.934 67.6969 179.204C68.8174 179.473 69.8717 179.967 70.7961 180.654C71.7205 181.342 72.4958 182.21 73.0752 183.205C73.6547 184.201 74.0263 185.303 74.1676 186.446C78.2332 209.11 74.6309 232.482 63.929 252.875C63.1668 254.137 62.0901 255.18 60.804 255.902C59.518 256.624 58.0665 257 56.5913 256.995Z" fill="#4D803B"/>
    <path d="M108.553 512.738L107.131 512.596C107.131 512.028 113.132 455.316 114.98 444.405C116.889 431.89 117.84 419.248 117.825 406.588C117.625 394.228 113.928 335.556 113.9 334.845C114.639 324.56 114.639 300.75 114.639 300.438H116.061C116.061 300.665 116.061 324.617 115.322 334.845C115.322 335.357 119.047 394.171 119.247 406.559C119.277 419.305 118.326 432.033 116.403 444.633C114.469 455.515 108.553 512.17 108.553 512.738Z" fill="#687C99"/>
    <path d="M77.3538 307.428H56.9902V308.848H77.3538V307.428Z" fill="#687C99"/>
    </svg>
    